<?xml version="1.0" encoding="UTF-8"?>
<svg id="Layout" xmlns="http://www.w3.org/2000/svg" viewBox="0 0 350 350">
  <path d="M162.79,258.49c-18.76,0-36.57-8.66-46.36-23.2-5.74-8.52-7.77-20.83-6.05-36.58,4.1-37.39,30.16-90.82,54.68-112.1,2.38-2.06,5.69-1.4,7.39,1.5,1.7,2.89,1.15,6.91-1.23,8.98-22.16,19.23-46.62,69.44-50.34,103.32-.91,8.3-1,19.68,3.75,26.73,9.17,13.62,28.48,20.91,46.96,17.73,13.35-2.29,37.89-12.23,52.27-53,13.77-39.03-.86-67.28-7.78-77.62-9.89-14.75-20.83-20.06-25.11-19-.91.22-1.26.62-1.51,1.68-.81,3.41-3.75,5.39-6.56,4.39-2.81-.99-4.43-4.56-3.62-7.97,1.34-5.63,4.83-9.54,9.58-10.71,9.96-2.46,24.52,7.19,35.44,23.48,8.14,12.15,25.35,45.33,9.31,90.82-16.43,46.57-44.97,58.01-60.53,60.68-3.43.59-6.88.88-10.29.88Z"/>
</svg>