<?xml version="1.0" encoding="UTF-8"?>
<svg id="Layout" xmlns="http://www.w3.org/2000/svg" viewBox="0 0 350 350">
  <path d="M169.33,269.19c-.95,0-1.9-.04-2.84-.12-10.71-.91-29.3-7.91-33.51-44.6-.36-3.13,1.92-5.95,5.08-6.31,3.19-.34,6.03,1.9,6.38,5.02,2.43,21.21,10.61,33.47,23.03,34.52,16.43,1.33,37.4-15.85,43.2-35.48,5.74-19.44-7.7-29.62-27.33-41.88-8.55-5.34-15.93-9.95-19.11-16-6.02-11.45,5.58-22.14,19.02-34.53,10.46-9.64,22.32-20.57,26.64-32.37,1.07-2.91.3-4.02-.03-4.49-5.13-7.35-34.02-7.81-51.28-8.09-12.74-.2-22.8-.37-28.25-2.23-3.01-1.03-4.61-4.28-3.57-7.25s4.33-4.56,7.34-3.52c3.71,1.27,14.36,1.44,24.66,1.6,24.42.39,52.09.84,60.59,13.02,2.04,2.92,3.94,7.87,1.39,14.84-5.26,14.38-18.2,26.31-29.62,36.83-8.3,7.65-18.63,17.17-16.65,20.92,1.74,3.31,8.5,7.53,15.04,11.62,16.27,10.17,40.86,25.53,32.24,54.72-7.1,24.04-31.08,43.76-52.43,43.76Z"/>
</svg>