<?xml version="1.0" encoding="UTF-8"?>
<svg id="Layout" xmlns="http://www.w3.org/2000/svg" viewBox="0 0 350 350">
  <path d="M147.14,253.07c-8.96,0-18.89-.79-29.91-2.52-3.15-.49-5.3-3.45-4.81-6.59.49-3.15,3.44-5.28,6.59-4.81,56.19,8.8,88.28-6.77,95.39-46.3.3-1.66-.05-3.07-1.12-4.56-7.83-10.87-43.16-15.99-62.15-18.74-11.39-1.65-16.54-2.44-19.25-3.9-3.09-1.66-5.04-4.65-5.51-8.42-1.27-10.39,9.31-26.92,20.27-36.88,2.36-2.15,6.01-1.97,8.15.39,2.14,2.36,1.97,6.01-.39,8.15-10.96,9.97-17.14,22.95-16.63,26.74,2.16.63,8.95,1.62,15.01,2.5,29.93,4.34,59.98,9.72,69.85,23.41,2.89,4.01,3.97,8.62,3.12,13.35-4.99,27.76-23.14,58.17-78.62,58.18ZM137.88,156.05h.02-.02ZM233.1,108.46c3.12-.68,5.09-3.75,4.42-6.86-.68-3.12-3.75-5.08-6.86-4.42-46.83,10.16-70.6-8.02-79.55-14.86-2.54-1.94-6.16-1.45-8.09,1.08-1.94,2.53-1.45,6.15,1.08,8.09,8.01,6.12,26.53,20.28,59.77,20.28,8.71,0,18.43-.97,29.24-3.32Z"/>
</svg>