<?xml version="1.0" encoding="UTF-8"?>
<svg id="Layout" xmlns="http://www.w3.org/2000/svg" viewBox="0 0 350 350">
  <path d="M169.24,256.45c-6.11,0-11.77-2.83-16.37-8.37-24.8-29.88-24.26-59.76,44.51-157.86,1.83-2.61,5.43-3.24,8.04-1.41,2.61,1.83,3.24,5.43,1.41,8.04-70.07,99.96-63.34,121.86-45.07,143.87,3.95,4.76,8.05,5.46,13.71,2.32,15.1-8.39,27.63-36.45,24.7-45.23-.95-2.85-2.22-2.96-2.97-3.03-6.99-.55-22.21,11.27-30.68,26.94-1.51,2.8-5.02,3.85-7.82,2.33-2.8-1.51-3.85-5.02-2.33-7.82,9.08-16.81,27.68-34.18,41.83-32.95,6.17.54,10.76,4.4,12.92,10.88,5.22,15.67-11.62,48.73-30.04,58.97-4.02,2.23-8.01,3.34-11.83,3.34Z"/>
</svg>