<?xml version="1.0" encoding="UTF-8"?>
<svg id="Layout" xmlns="http://www.w3.org/2000/svg" viewBox="0 0 350 350">
  <path d="M149.15,251.63c-11.71,0-19.62-1.42-24.5-6.87-3.71-4.13-4.91-9.94-3.66-17.75,2.08-13.09,24.21-42.35,49.31-70.22-25.88-20.45-41.16-34.1-38.76-46.1.84-4.22,3.75-10.06,12.78-13.96,17.09-7.38,47.05-4.12,59.59,3.72,2.7,1.69,3.52,5.25,1.83,7.95-1.69,2.7-5.25,3.53-7.95,1.83-9.5-5.94-35.91-8.51-48.9-2.91-3.57,1.54-5.6,3.43-6.04,5.63-1.22,6.07,20.82,23.93,35.26,35.31,26.05-27.95,53.36-52.57,63.77-55.16,3.09-.78,6.22,1.11,6.99,4.2.77,3.09-1.11,6.22-4.2,6.99-6,1.49-29.32,21.35-57.33,51.23,14.57,11.51,26.55,21.51,29.99,29.44,5.3,12.24,12.72,35.07,2.87,50.54-5.92,9.29-16.74,14.21-32.17,14.63-7.18.2-13.89.53-19.8.82-7.26.36-13.59.67-19.09.67ZM179.5,164.02c-26.88,29.6-45.6,55.28-47.11,64.79-.65,4.1-.37,6.88.85,8.23,3.51,3.91,17.84,3.2,34.43,2.38,5.97-.3,12.74-.63,20.05-.83,11.36-.31,19.02-3.44,22.75-9.3,7.25-11.39-.19-31.59-3.73-39.75-2.39-5.52-14.86-15.74-27.25-25.52Z"/>
</svg>