<?xml version="1.0" encoding="UTF-8"?>
<svg id="Layout" xmlns="http://www.w3.org/2000/svg" viewBox="0 0 350 350">
  <path d="M167.95,246.83c-2.03,0-3.85-1.35-4.41-3.35-.07-.25-7.42-25.68-24.28-28.03-16.16-2.25-18.24-9.77-18.38-12.9-.28-6.28,5.48-11.72,14.7-13.87,6.33-1.48,16.67-4.13,28.07-7.37.43-20.59,1.32-40.42,3.11-48.55.54-2.47,2.97-4.03,5.45-3.49,2.47.54,4.03,2.98,3.49,5.45-1.57,7.17-2.4,24.89-2.83,43.9,20.72-6.18,42.32-13.7,48.63-19.31,1.89-1.68,4.78-1.51,6.47.38,1.68,1.89,1.51,4.79-.38,6.47-8.19,7.28-33.29,15.76-54.9,22.07-.42,26.97-.16,53.48-.15,53.97.02,2.3-1.66,4.26-3.94,4.58-.22.03-.43.04-.65.04ZM163.49,190.86c-14.43,4.02-25.54,6.68-25.82,6.74-5.81,1.36-7.65,3.96-7.63,4.53.02.43,2.04,3.06,10.49,4.24,10.28,1.43,17.69,8.35,22.76,15.63,0-8.91.04-19.89.2-31.15Z"/>
</svg>