<?xml version="1.0" encoding="UTF-8"?>
<svg id="Layout" xmlns="http://www.w3.org/2000/svg" viewBox="0 0 350 350">
  <path d="M186.48,243.51c-19.53,0-39.34-5.82-51.01-16.91-11.13-10.57-16.84-28.61-14.53-45.95,2.21-16.68,11.27-30.1,25.49-37.79,33.06-17.88,66.17-4.86,77.35,11.41,4.1,5.97,4.87,14.83,2.27,26.33-3.4,15.07-12.84,33.88-18.72,37.29-1.97,1.14-4.23,1.14-6.05,0-2.8-1.75-3.99-5.55-3.94-14.37-6.6,7.34-15.51,15.21-23.44,18.83-6.21,2.84-11.51,3.02-15.76.53-2.61-1.53-8.26-6.31-4.42-17.8,4.39-13.13,21.26-32.09,33.76-30.61,2.51.29,4.31,2.57,4.02,5.08s-2.56,4.33-5.08,4.02c-5.83-.66-20.04,12.53-24.02,24.42-.71,2.12-1.6,5.84.36,6.99,1.57.92,4.01.33,5.78-.31,12.25-4.49,28.1-23.53,29.53-27.29.95-4.62,4.78-4.26,5.22-4.21,4.35.56,4.05,4.65,3.83,7.64-.49,6.54-.64,11.02-.63,14.08,6.43-10.94,16.4-35.73,9.74-45.42-9.23-13.43-37.11-23.87-65.45-8.54-11.57,6.26-18.95,17.25-20.76,30.94-1.9,14.3,2.83,29.62,11.76,38.11,17.77,16.88,59.23,19.51,80.66,5.13,2.1-1.41,4.95-.85,6.35,1.25,1.41,2.1.85,4.94-1.25,6.35-10.87,7.3-25.88,10.81-41.06,10.81ZM198.05,187.46v.06s0-.04,0-.06Z"/>
</svg>