<?xml version="1.0" encoding="UTF-8"?>
<svg id="Layout" xmlns="http://www.w3.org/2000/svg" viewBox="0 0 350 350">
  <path d="M197.64,147.09c-.52,0-1.06-.05-1.61-.15-7.26-1.38-9.54-11.19-10.29-14.41-1.68-7.22-2.46-15.51-3.22-23.52-.72-7.57-1.77-18.81-3.69-21.6-7.44,2.81-21.31,22.83-28.72,45.5-.79,2.4-3.37,3.72-5.78,2.93-2.4-.79-3.72-3.37-2.93-5.78,7.19-22.02,22.76-48.02,35.37-51.62,2.46-.7,4.92-.33,6.94,1.04,5.32,3.63,6.43,12.79,7.92,28.66.73,7.71,1.48,15.68,3.02,22.3,1.28,5.52,2.69,7.09,3.09,7.44.67-.24,1.97-1.4,2.73-2.48,1.45-2.06,4.3-2.57,6.37-1.12,2.07,1.44,2.59,4.27,1.16,6.34-.49.71-4.63,6.45-10.36,6.45Z"/>
</svg>