<?xml version="1.0" encoding="UTF-8"?>
<svg id="Layout" xmlns="http://www.w3.org/2000/svg" viewBox="0 0 350 350">
  <path d="M158.63,127.9c-1.37,0-2.73-.62-3.63-1.79-1.54-2.01-1.17-4.88.84-6.42,2.76-2.13,4.22-8.88,5.39-14.31.74-3.41,1.43-6.64,2.47-9.4.89-2.37,3.53-3.57,5.9-2.68,2.37.89,3.57,3.53,2.68,5.89-.8,2.13-1.42,5.04-2.09,8.12-1.56,7.25-3.34,15.46-8.76,19.64-.83.64-1.81.95-2.79.95ZM190.5,131c2.81-4.21,3.57-12.39,4.33-23.48.22-3.2.5-7.18.79-8.24.91-2.3-.17-4.92-2.46-5.9-2.33-.99-5.02.08-6.01,2.41-.79,1.85-1.03,4.91-1.46,11.1-.4,5.77-1.14,16.52-2.82,19.03-1.4,2.1-.83,4.95,1.27,6.35.78.52,1.66.77,2.54.77,1.48,0,2.93-.72,3.81-2.04ZM195.58,99.39s.02-.04.03-.06c0,.02-.02.04-.03.06Z"/>
</svg>