<?xml version="1.0" encoding="UTF-8"?>
<svg id="Layout" xmlns="http://www.w3.org/2000/svg" viewBox="0 0 350 350">
  <path d="M146.7,255.96c-2.37,0-4.38-1.83-4.56-4.24-.19-2.52,1.7-4.72,4.23-4.91.05,0,7.02-.64,14.73-5.51,7-4.42,17.09-4.33,23.27-3.72.15-7.4.23-21.41-1.05-31.6-1.72-13.75,10.53-58.84,14.52-72.99-1.16-.04-2.85.08-5.17.64-10.34,2.46-24.22,2.29-31.92-3.63-2-1.54-2.38-4.42-.84-6.42,1.54-2.01,4.42-2.38,6.42-.84,4.38,3.37,14.79,4.22,24.21,1.98,12.38-2.95,16.02,2.14,16.84,3.76.52,1.03.63,2.22.31,3.33-4.74,16.41-16.73,61.52-15.29,73.03,1.9,15.17,1.01,37.24.97,38.17-.06,1.34-.69,2.58-1.75,3.41-1.05.82-2.42,1.15-3.73.89-4.06-.8-15.93-2.06-21.91,1.72-9.74,6.15-18.57,6.87-18.94,6.9-.12,0-.23.01-.34.01ZM199.77,133.4h0Z"/>
</svg>