<?xml version="1.0" encoding="UTF-8"?>
<svg id="Layout" xmlns="http://www.w3.org/2000/svg" viewBox="0 0 350 350">
  <path d="M134,179.6c-2.48,0-4.52-1.98-4.58-4.47-.06-2.53,1.94-4.63,4.46-4.69,11.74-.29,26.49-1.82,40.77-3.3,16.27-1.69,31.63-3.29,41.51-2.94,2.53.09,4.51,2.21,4.42,4.73-.09,2.47-2.12,4.42-4.57,4.42-.05,0-.11,0-.16,0-9.22-.29-24.3,1.24-40.25,2.89-14.45,1.5-29.39,3.04-41.48,3.34-.04,0-.08,0-.12,0ZM141.36,217.3c5.84-.65,12.91-2.17,21.1-3.94,15.61-3.36,35.03-7.57,53.39-6.95,2.58.1,4.64-1.9,4.73-4.43.08-2.53-1.9-4.64-4.43-4.73-19.49-.63-39.52,3.68-55.62,7.15-7.94,1.71-14.81,3.19-20.18,3.79-2.51.28-4.32,2.54-4.05,5.06.26,2.34,2.24,4.07,4.55,4.07.17,0,.34,0,.51-.03Z"/>
</svg>