<?xml version="1.0" encoding="UTF-8"?>
<svg id="Layout" xmlns="http://www.w3.org/2000/svg" viewBox="0 0 350 350">
  <path d="M167.29,183.66c-.12,0-.25,0-.37-.01-2.52-.2-4.4-2.41-4.2-4.93.06-.7,5.75-70.98,15.53-115.67.54-2.47,2.98-4.04,5.45-3.5,2.47.54,4.04,2.98,3.5,5.45-9.64,44.08-15.29,113.74-15.34,114.44-.19,2.4-2.2,4.21-4.56,4.21ZM176.87,256.22c2.31-1.03,3.34-3.74,2.31-6.04-.05-.12-5.2-11.93-.33-19.51,1.37-2.13.75-4.96-1.38-6.33-2.13-1.37-4.96-.75-6.33,1.38-7.57,11.78-.62,27.54-.32,28.21.76,1.69,2.43,2.7,4.17,2.7.63,0,1.26-.13,1.87-.4Z"/>
</svg>