<?xml version="1.0" encoding="UTF-8"?>
<svg id="Layout" xmlns="http://www.w3.org/2000/svg" viewBox="0 0 350 350">
  <path d="M158.27,132.65c-2.37,0-4.37-1.82-4.56-4.22-.08-1.03-1.88-25.29,5.61-40.3,1.13-2.26,3.88-3.18,6.14-2.05,2.26,1.13,3.18,3.88,2.05,6.14-6.36,12.72-4.69,35.26-4.67,35.49.19,2.52-1.69,4.72-4.21,4.92-.12,0-.24.01-.36.01ZM196.02,130.17c1.16-2.25.28-5.01-1.96-6.17-2.71-1.4-4.54-4.35-5.46-8.78-2.07-9.99,1.47-22.42,3.16-24.48,1.6-1.96,1.31-4.84-.64-6.44-1.96-1.6-4.84-1.31-6.44.64-3.75,4.59-7.52,20.1-5.04,32.13,1.48,7.16,5.01,12.37,10.22,15.06.67.35,1.39.51,2.1.51,1.66,0,3.26-.9,4.07-2.48Z"/>
</svg>