<?xml version="1.0" encoding="UTF-8"?>
<svg id="Layout" xmlns="http://www.w3.org/2000/svg" viewBox="0 0 350 350">
  <path d="M137.23,261.13c-.87,0-1.75-.25-2.53-.76-2.11-1.4-2.68-4.24-1.29-6.35,22.39-33.78,57.99-109.99,70.29-136.36-.34.1-.69.19-1.03.26-2.49.5-4.89-1.11-5.39-3.59-.5-2.48,1.11-4.89,3.59-5.39,1.05-.21,3.53-1.73,5.01-2.64,3.36-2.06,6.84-4.2,9.86-1.43,2.96,2.71,1.05,6.54.42,7.8-.44.88-1.83,3.85-3.74,7.97-11.96,25.65-48.34,103.7-71.37,138.44-.88,1.33-2.34,2.05-3.82,2.05ZM158.96,158.84c1.03-2.22.12-4.84-2.02-5.97,3.52-2.05,7.18-5.84,6.11-9.88-.54-2.04-2.45-4.21-6.18-4.21-2.53,0-4.57,2.05-4.57,4.58,0,.51.08,1.01.24,1.47-.09.06-.19.11-.28.17-3.83,2.19-5.86,5.17-5.72,8.4.1,2.22,1.28,5.35,6.35,7.69.62.29,1.27.42,1.92.42,1.73,0,3.39-.99,4.16-2.66ZM156.9,147.94h.02-.02ZM191.69,227.16c2.22-.83,3.41-3.21,2.82-5.45.4-2.12,4.99-7.17,7.21-7.37,2.52-.23,4.38-2.46,4.15-4.97-.23-2.52-2.44-4.37-4.97-4.15-5.18.47-10.5,5.39-13.24,9.76-2.22,3.54-2.87,6.83-1.86,9.51.69,1.84,2.43,2.97,4.29,2.97.53,0,1.08-.09,1.61-.29ZM194.49,221.87h0ZM194.37,221.26h0s0,0,0,0Z"/>
</svg>