<?xml version="1.0" encoding="UTF-8"?>
<svg id="Layout" xmlns="http://www.w3.org/2000/svg" viewBox="0 0 350 350">
  <path d="M205.2,174.56c-2.16-1.31-4.98-.62-6.29,1.54-4.06,6.69-10.35,9.01-20.7,8.25.49-14.49.7-27.13.16-31.26-.33-2.51-2.62-4.29-5.13-3.95-2.51.33-4.28,2.62-3.95,5.13.45,3.46.26,14.98-.21,28.84-5.87-1.07-12.7-2.72-20.73-4.86-2.44-.65-4.95.8-5.6,3.25-.65,2.44.8,4.95,3.25,5.6,7.65,2.04,15.38,4.09,22.74,5.33-.7,18.04-1.7,37.77-2.28,48.45-.14,2.52,1.8,4.69,4.32,4.82.09,0,.17,0,.25,0,2.41,0,4.44-1.89,4.57-4.33.23-4.27,1.44-26.58,2.28-47.89,1.14.07,2.27.12,3.38.12,10.61,0,19.68-3.19,25.49-12.78,1.31-2.16.62-4.98-1.54-6.29Z"/>
</svg>