<?xml version="1.0" encoding="UTF-8"?>
<svg id="Layout" xmlns="http://www.w3.org/2000/svg" viewBox="0 0 350 350">
  <path d="M164.63,205.53c-.57,0-1.16-.06-1.77-.2-3.73-.86-6.28-4.18-7.55-9.86-1.71-7.6,6.74-16.07,20.66-29.27,8.96-8.5,21.24-20.13,21.21-25.69,0-.47-.1-.84-.61-1.31-8.61-8.01-15.4-3.5-26.65,5.16-6.85,5.27-13.94,10.75-21.86,10.41-2.53-.1-4.5-2.23-4.4-4.75.1-2.53,2.22-4.5,4.75-4.4,4.64.21,10.11-4.05,15.92-8.52,10.03-7.71,23.76-18.28,38.47-4.6,2.3,2.14,3.52,4.89,3.53,7.98.04,9.52-11.67,20.63-24.07,32.38-6.8,6.45-18.19,17.24-18.01,20.67.28,1.26.59,2.04.82,2.52.47-.34,1.04-.86,1.44-1.33,1.6-1.95,4.48-2.25,6.43-.66,1.96,1.58,2.27,4.44.7,6.41-.74.93-4.34,5.09-9.01,5.09ZM173.18,244.04c4.05,4.37,7.17,5.61,10.91,4.99s3.12-6.55,0-8.73-4.99-7.8-10.91-4.37,0,8.11,0,8.11Z"/>
</svg>