<?xml version="1.0" encoding="UTF-8"?>
<svg id="Layout" xmlns="http://www.w3.org/2000/svg" viewBox="0 0 350 350">
  <path d="M184.06,283.72c-3.87,0-7.37-2.64-8.31-6.56-2.08-8.67,5.24-17.92,15.37-30.74,4.44-5.63,9.04-11.44,12.52-16.91,1.02-1.61,1.54-2.74,1.8-3.47-1.34-.47-4.34-1.13-10.62-1.15-2.6.62-10,5.71-14.93,9.09-13.87,9.52-28.23,19.35-40.17,15.55-3.61-1.15-8.46-4.04-11.14-11.31-3.19-8.65-.92-17.54,6.39-25.04,14.97-15.36,49.12-23.04,64.67-17.76,4.47,1.52,6.87,6.37,5.35,10.85-.25.74-.59,1.42-1.01,2.03,7.02.92,13.68,3.34,17.01,9.42,3.21,5.84,2.23,12.89-2.91,20.97-3.95,6.21-8.82,12.37-13.54,18.34-4.41,5.58-11,13.92-11.98,17.12.51,4.25-2.23,8.3-6.5,9.33-.67.16-1.34.24-2,.24ZM192.38,273.17s0,0,0,0c0,0,0,0,0,0ZM184.09,210.99c-11.98.95-29.12,6.18-36.88,14.14-3.8,3.9-2.98,6.12-2.59,7.19.3.82.55,1.08.55,1.08,3.85,1,18.71-9.18,25.03-13.52,5.58-3.83,10.03-6.83,13.88-8.88Z"/>
</svg>