<?xml version="1.0" encoding="UTF-8"?>
<svg id="Layout" xmlns="http://www.w3.org/2000/svg" viewBox="0 0 350 350">
  <path d="M224.57,252.78c-2.98-8.93-5.36-39.47-7.45-70.93l2.95-.49c3.12-.52,5.24-3.47,4.72-6.6-.52-3.13-3.46-5.25-6.6-4.72l-1.83.3c-.18-2.72-.35-5.44-.52-8.12-5.37-83.5-7.4-97.61-14.47-100.61-2.37-1.01-5-.58-7.04,1.14-5.97,5.05-22.86,49.95-38.87,95.45,1.82-13.68,3-27.29,3-39.52,0-3.17-2.57-5.74-5.74-5.74s-5.74,2.57-5.74,5.74c0,50.16-21.44,127.34-21.66,128.12-.84,3,.87,6.12,3.85,7.03,2.98.9,6.14-.73,7.12-3.69,5.39-16.33,11.76-35.27,18.39-54.59,14.03-5.13,32.37-8.63,51.05-11.8,2.23,33.51,4.56,62.52,7.94,72.66.8,2.4,3.04,3.92,5.44,3.92.6,0,1.21-.1,1.81-.3,3.01-1,4.63-4.25,3.63-7.26ZM159.39,181.95c14.78-42.71,30-84.76,37.98-102.34,2.77,17.19,5.17,54.52,7.03,83.35.2,3.11.4,6.21.6,9.28-16.05,2.71-31.97,5.66-45.6,9.71Z"/>
</svg>