<?xml version="1.0" encoding="UTF-8"?>
<svg id="Layout" xmlns="http://www.w3.org/2000/svg" viewBox="0 0 350 350">
  <path d="M168.77,255.27c-26.72,0-37.18-20.33-37.64-21.25-2.11-4.23-.39-9.36,3.84-11.47,4.24-2.11,9.37-.39,11.47,3.84.24.46,7.26,13.33,25.9,11.6,7.32-.68,17.08-12.52,23.73-28.8,7.68-18.8,7.76-34.12,4.88-37.53-.19-.23-.3-.29-.3-.29-6.25-1.37-27.16,21.58-36.07,31.39-4.56,5.02-8.87,9.77-12.79,13.68-6.7,6.71-12.31,5.16-15.06,3.64-10.92-6.04-8.82-25.35,13.21-121.53,1.73-7.56,3.41-14.87,4.93-21.66,1.03-4.61,5.61-7.5,10.22-6.47,4.61,1.04,7.51,5.61,6.47,10.22-1.53,6.81-3.21,14.14-4.95,21.73-6.48,28.3-16.42,71.67-18.85,93.44,1.35-1.48,2.74-3.01,4.16-4.56,19.65-21.63,34.67-36.98,48.64-36.98.11,0,.22,0,.33,0,5.16.09,9.69,2.28,13.12,6.33,10.15,11.99,5.21,37.15-2.1,55.05-9.53,23.32-23.73,38.04-37.98,39.36-1.78.17-3.5.24-5.16.24ZM147.62,207.91h.03-.03Z"/>
</svg>