<?xml version="1.0" encoding="UTF-8"?>
<svg id="Layout" xmlns="http://www.w3.org/2000/svg" viewBox="0 0 350 350">
  <path d="M123.1,265.88c-3.6,0-5.81-1.13-7.44-1.96-4.76-2.43-10.01-8.21-7.98-22,4.33-29.39,54.58-92.97,82.18-89.05,12.87,1.84,20.51,5.23,24.04,10.69.03.05.06.1.09.15,21.05-47.68,8.25-105.92.18-126.49-1.73-4.4.44-9.36,4.84-11.09,4.4-1.73,9.36.44,11.09,4.84,11.96,30.48,30.47,121.84-26.73,177.84-49.36,48.32-70.23,57.08-80.27,57.08ZM186.67,169.75c-14.27,0-58.34,49.36-62.06,74.66-.27,1.83-.31,3.1-.27,3.94,4.63-.95,21.88-7.54,67.07-51.78,5.64-5.53,10.44-11.49,14.48-17.77-.31-.05-.63-.12-.94-.21-2.91-.83-5.04-3.08-5.85-5.78-1.35-.7-4.64-2.01-11.65-3.01-.25-.04-.5-.05-.77-.05ZM199.06,168.03h0s0,0,0,0Z"/>
</svg>