<?xml version="1.0" encoding="UTF-8"?>
<svg id="Layout" xmlns="http://www.w3.org/2000/svg" viewBox="0 0 350 350">
  <path d="M204.56,254.94c-9.11,0-19.3-1.69-27.92-7.34-8.5-5.57-14.15-13.91-16.88-24.86-13.14,9.45-26.28,16.47-35.8,17.19-4.72.37-8.82-3.17-9.18-7.88s3.17-8.82,7.88-9.18c7.78-.59,21.63-9.37,35.17-20.29,1.06-35.61,24.96-52.96,39.05-54.37,9.78-.98,14.94,4.97,15.59,10.92.48,4.4-.35,12-12.95,27.15-6.24,7.51-14.9,16.17-24.4,24.32.03.36.06.72.09,1.08.95,10.38,4.47,17.44,10.75,21.58,11.71,7.71,31.44,3.81,38.05,1.65,4.49-1.46,9.32.98,10.79,5.46,1.47,4.48-.95,9.31-5.43,10.79-.76.25-11.67,3.78-24.82,3.78ZM192.36,167.74c-1.66,1.02-3.49,2.42-5.36,4.28-2.3,2.29-5.23,5.89-7.63,11.08,5.56-5.68,10.15-11.05,12.99-15.36Z"/>
</svg>