<?xml version="1.0" encoding="UTF-8"?>
<svg id="Layout" xmlns="http://www.w3.org/2000/svg" viewBox="0 0 350 350">
  <path d="M259.24,70.74c-23.3,18.47-51.45,25.65-76.29,31.97-14.84,3.78-28.17,7.18-37.95,12.35-7.97,18.97-17.55,87.33-12.21,131.84.38,3.15-1.87,6-5.01,6.38-.23.03-.46.04-.69.04-2.86,0-5.34-2.14-5.69-5.05-4.73-39.43,1.36-106.98,8.61-126.55-.58-.3-1.13-.7-1.59-1.22-2.14-2.34-1.97-5.97.37-8.1,2.17-1.98,4.56-3.75,7.16-5.35.1-.23.2-.47.3-.7,1.54-3.61,2.87-6.72,3.92-9.56,1.1-2.97,4.4-4.49,7.37-3.39,2.7,1,4.19,3.81,3.62,6.54,8.65-3.14,18.45-5.64,28.97-8.32,23.72-6.04,50.61-12.9,71.99-29.84,2.48-1.97,6.09-1.55,8.06.93,1.97,2.48,1.55,6.09-.93,8.06ZM211.37,158.2c2.26-2.22,2.28-5.86.06-8.11-2.22-2.26-5.86-2.29-8.11-.06-17.93,17.66-38.19,16.36-43.16,13.92-2.84-1.4-6.28-.23-7.68,2.62-1.4,2.84-.22,6.28,2.62,7.68,2.85,1.4,7.71,2.51,13.77,2.51,11.72,0,27.9-4.18,42.5-18.55Z"/>
</svg>