<?xml version="1.0" encoding="UTF-8"?>
<svg id="Layout" xmlns="http://www.w3.org/2000/svg" viewBox="0 0 350 350">
  <path d="M172.87,345.52c-2.15,0-4.29-.8-5.95-2.41-3.39-3.29-3.48-8.7-.19-12.1,53.88-55.61,47.13-73.93,41.18-90.1-3.55-9.64-32.28-4.84-47.72-2.26-8.4,1.4-15.66,2.62-21.13,2.62-12.53,0-16.15-7.49-17.13-10.72-3.69-12.19,8.71-28.13,22.87-37.57,11.62-7.75,21.4-7.43,27.55-5.79,9.18,2.44,17.03,9.39,22.12,19.57,2.05,4.1.5,9.05-3.45,11.28,14.96.04,28.09,3.8,32.95,16.96,10.65,28.91,6.65,54.67-44.94,107.92-1.68,1.73-3.91,2.6-6.14,2.6ZM138.78,224.16c3.84.06,11.08-1.13,18.59-2.38,8.03-1.34,17.02-2.85,25.79-3.46-1.67-.79-3.1-2.13-4-3.91-2.82-5.65-6.91-9.54-11.21-10.69-3.99-1.07-8.6.11-13.67,3.49-8.73,5.82-14.04,13.13-15.5,16.94Z"/>
</svg>