<?xml version="1.0" encoding="UTF-8"?>
<svg id="Layout" xmlns="http://www.w3.org/2000/svg" viewBox="0 0 350 350">
  <path d="M218.46,261.85c-10.06,0-17.47-3.21-22.02-9.54-9.48-13.18-2.46-34.12,4.33-54.38,1.69-5.04,3.74-11.15,5.02-16.13-8.45,8.05-21.09,23.3-29.52,33.47-25.23,30.43-32.57,38.06-41.07,37.22-4.08-.41-7.52-2.55-9.68-6.02-7.15-11.53.76-35.35,23.49-95.52,12.5-33.1,26.66-70.61,30.73-94.76.79-4.65,5.2-7.79,9.86-7.02,4.66.78,7.8,5.2,7.02,9.86-4.34,25.79-18.2,62.48-31.6,97.96-9.51,25.2-21.92,58.05-24.54,73.53,6.29-6.47,15.4-17.45,22.62-26.17,28.51-34.4,40.35-47.16,51.52-44.52,2.14.5,7.28,2.45,8.97,9.69,1.95,8.34-1.82,19.59-6.6,33.84-4.39,13.1-11.02,32.89-6.66,38.95,1.44,2,5.22,2.42,8.13,2.42,4.72,0,8.55,3.83,8.55,8.55s-3.83,8.55-8.55,8.55ZM140.28,237.87h.04-.04Z"/>
</svg>