<?xml version="1.0" encoding="UTF-8"?>
<svg id="Layout" xmlns="http://www.w3.org/2000/svg" viewBox="0 0 350 350">
  <path d="M127.85,250.41c-2.92,0-5.41-2.33-5.7-5.45-1.82-19.67,4.05-40.63,10.27-62.82,4.8-17.12,9.76-34.82,10.78-51.6.09-1.5.2-3.05.3-4.63.97-14.32,2.19-32.15-6.37-36.38-2.87-1.42-4.1-5.01-2.75-8.03s4.77-4.31,7.63-2.89c15.68,7.76,14.15,30.17,12.93,48.17-.11,1.55-.21,3.07-.3,4.53-1.1,18.13-6.25,36.49-11.22,54.25-5.9,21.03-11.47,40.9-9.86,58.23.31,3.32-2,6.27-5.15,6.6-.19.02-.38.03-.56.03ZM227.75,156.36c-1.21-3.08-4.57-4.55-7.49-3.27-.1.04-3.3,1.43-8.08,3.36,1.87-9.84,4.03-20.48,6.16-30.98,6.6-32.5,10.6-52.79,9.72-60.24-.39-3.31-3.23-5.67-6.4-5.24-3.14.41-5.37,3.43-4.98,6.74.69,5.8-4.75,32.59-9.56,56.22-2.67,13.13-5.38,26.48-7.53,38.34-9.79,3.57-20.81,7.06-27.64,7.6-6.74.54-8.13-1.21-9.46-2.9-1.24-1.57-4.52-5.73-10.15-3.42-2.95,1.21-4.42,4.7-3.27,7.81.84,2.27,2.84,3.71,5.01,3.84,3.01,3.65,7.12,6.84,15.66,6.84.97,0,1.99-.04,3.08-.13,6.44-.51,15.63-3.11,24.49-6.11-.82,5.31-1.43,10.06-1.74,13.98-.33,4.2-.71,8.24-1.08,12.13-2.22,23.59-4.14,43.96,9.17,63.42,1.12,1.64,2.88,2.51,4.66,2.51,1.16,0,2.33-.37,3.35-1.14,2.57-1.95,3.15-5.72,1.3-8.43-10.78-15.76-9.22-32.29-7.06-55.18.37-3.95.76-8.05,1.1-12.31.4-5.11,1.37-11.8,2.67-19.46,8.2-3.14,14.39-5.82,14.98-6.08,2.93-1.28,4.32-4.81,3.11-7.89Z"/>
</svg>