<?xml version="1.0" encoding="UTF-8"?>
<svg id="Outline_Stroke" data-name="Outline Stroke" xmlns="http://www.w3.org/2000/svg" viewBox="0 0 350 350">
  <path d="M138.88,258.06c-.81,0-1.64-.18-2.4-.57-2.21-1.11-3.38-3.58-2.83-5.99.05-.24,5.48-25.4-8.26-44.29-15.67-21.54-34.04-69.65-14.87-88.82,9.26-9.25,22.17-13.85,34.56-12.24,9.9,1.27,18.11,6.3,22.5,13.8,4.99,8.52,6.33,21.02,6.51,30.64,16.99-16.74,35.7-32.3,52.43-30.44,7.27.81,13.19,4.82,17.6,11.92,20.05,32.27,6.36,64.31-40.68,95.23-9.9,6.51-22.94,11.58-34.44,16.05-11.12,4.33-22.62,8.8-26.04,12.82-1.05,1.23-2.56,1.89-4.09,1.89ZM140.19,116.57c-8,0-16.04,3.38-22.07,9.41-12.73,12.73.91,54.22,15.96,74.92,10.1,13.88,11.75,29.96,11.41,40.74,5.5-2.79,12.29-5.44,19.63-8.29,11-4.28,23.48-9.14,32.43-15.02,41.82-27.49,54.08-53.85,37.46-80.59-2.63-4.22-5.79-6.49-9.67-6.92-15.19-1.69-38.66,22.19-49.94,33.66-1.22,1.25-2.35,2.39-3.35,3.39-1.61,1.61-4.05,2.03-6.1,1.05-2.05-.98-3.26-3.14-3.03-5.4.75-7.16,1.38-27.96-4.59-38.14-2.7-4.61-8.03-7.74-14.61-8.59-1.18-.15-2.36-.22-3.54-.22Z"/>
</svg>