<?xml version="1.0" encoding="UTF-8"?>
<svg id="Layout" xmlns="http://www.w3.org/2000/svg" viewBox="0 0 350 350">
  <path d="M189.55,179.5c2.73,21.16-6.3,57.97-10.64,67.2-1.46,3.1-4.54,4.91-7.75,4.91-1.22,0-2.46-.26-3.64-.82-4.27-2.01-6.11-7.11-4.1-11.38,3.65-7.76,11.25-41.51,9.15-57.72-.6-4.68,2.7-8.97,7.39-9.58,4.68-.62,8.97,2.71,9.58,7.39ZM216.73,127.6c-17.44-5.58-22.79-1.64-29.13,12.25l-1.39,3.01c-2,4.28-.16,9.37,4.12,11.37,1.17.55,2.41.81,3.62.81,3.22,0,6.3-1.82,7.75-4.93l1.45-3.16c.78-1.7,1.63-3.57,2.26-4.7,1,.17,2.82.59,6.09,1.64,4.5,1.44,9.32-1.04,10.75-5.54,1.44-4.5-1.04-9.32-5.54-10.75Z"/>
</svg>