<?xml version="1.0" encoding="UTF-8"?>
<svg id="Layout" xmlns="http://www.w3.org/2000/svg" viewBox="0 0 350 350">
  <path d="M135.33,263.17c-3.53,0-6.13-1.27-7.96-2.72-10.23-8.15-6.25-47.2,4.16-81.69,4.17-13.83,15.57-65.37,14.78-70.68-.69-4.67,2.54-9.02,7.21-9.71,4.68-.7,9.02,2.54,9.71,7.21,1.28,8.65-8.52,55.54-15.33,78.12-3.79,12.56-8.32,51.38-8.99,60.7,3.96-1.73,8.66-.23,10.85,3.6,2.34,4.1.92,9.33-3.19,11.67-4.5,2.57-8.22,3.51-11.25,3.51ZM203.02,247.43c33.09-.62,46.1-11.43,47.48-12.66,3.52-3.15,3.9-8.62.75-12.14-3.15-3.52-8.48-3.88-12-.74-.1.08-10.05,7.93-36.54,8.44-14.1.27-20.58-5.05-25.09-10.41,3.02-3.36,6.25-7.46,9.91-12.11,7.79-9.9,22.29-28.33,29.51-26.46,4.57,1.17,9.24-1.57,10.42-6.15,1.18-4.57-1.57-9.24-6.15-10.42-18.03-4.63-33.55,15.05-47.23,32.44-2.7,3.43-6.22,7.9-9.19,11.23-.8-.18-1.65-.28-2.57-.28-8,0-16.1,3.94-16.1,11.48,0,3.45,2,7.73,7.63,9.38,1.95.57,4.32.84,7.45.84.75,0,1.49-.06,2.22-.19,5.87,7.32,16.27,17.74,38.19,17.74.44,0,.88,0,1.33-.01Z"/>
</svg>