<?xml version="1.0" encoding="UTF-8"?>
<svg id="Layout" xmlns="http://www.w3.org/2000/svg" viewBox="0 0 350 350">
  <path d="M161.91,267.81c-3.65,0-7.03-2.35-8.17-6.02-8.23-26.49,14.52-113.3,80.09-166.6,3.82-3.1,5.35-4.62,5.96-5.36-.08-.51-.23-1.24-.35-1.86-.25-1.25-.54-2.68-.8-4.37-.71-4.67,2.51-9.03,7.18-9.74,4.68-.72,9.03,2.51,9.74,7.18.21,1.36.44,2.51.65,3.52,2.2,10.81-.65,15.03-11.58,23.91-64.46,52.4-79.35,132.77-74.54,148.25,1.4,4.51-1.12,9.3-5.63,10.71-.85.26-1.7.39-2.54.39ZM239.86,90.37h.03-.03Z"/>
</svg>