<?xml version="1.0" encoding="UTF-8"?>
<svg id="Outline_Stroke" data-name="Outline Stroke" xmlns="http://www.w3.org/2000/svg" viewBox="0 0 350 350">
  <path d="M260.38,258.3c-6.1,0-15.58-1.11-22.57-7.03-5.28-4.47-8.17-10.87-8.35-18.5-.07-2.93,0-5.76.2-8.47-34.32,15.35-77.59,29.92-97.67,25.66-8.16-1.73-12.69-8.14-11.54-16.35.65-4.68,2.49-17.81,49.55-63.05-34.61,12.53-107.61,70.43-108.37,71.03-3.62,2.88-8.86,2.36-11.85-1.16-2.99-3.53-2.64-8.78.79-11.88,29.35-26.5,91.82-98.32,115.29-130.6,2.78-3.82,8.13-4.67,11.95-1.89,3.82,2.78,4.67,8.13,1.89,11.95-11.81,16.24-33.34,42.33-55.73,67.85,16.66-10.53,32.89-19.42,44.67-22.86,14.46-4.22,33.23-15.05,49.78-26.11,7.75-6.62,14.11-11.89,18.33-15.34,23.16-18.97,24.37-18.88,28-18.63,4.48.31,8.03,4.1,8.03,8.6,0,3.15,0,8.42-37.15,34.35-2.47,1.72-5.32,3.68-8.47,5.76-36.33,31.53-83.52,76.33-89.21,91.92,19.46,1.74,64.68-15.2,96.32-30.34,5.34-13.67,14.35-22.73,23.09-27.28,8.4-4.39,16.57-4.68,21.85-.81,3.89,2.86,5.68,7.58,4.78,12.63-.86,4.86-4.74,9.22-13.37,15.04-5.33,3.6-13.12,8-22.36,12.67-1.17,4.74-1.86,10.33-1.7,16.89.08,3.55,1.34,5.03,2.28,5.83,3.96,3.39,12.43,3.14,15.08,2.79,4.68-.62,8.98,2.64,9.62,7.31.64,4.66-2.59,8.97-7.25,9.63-.61.09-2.83.37-5.91.37Z"/>
</svg>