<?xml version="1.0" encoding="UTF-8"?>
<svg id="Layout" xmlns="http://www.w3.org/2000/svg" viewBox="0 0 350 350">
  <path d="M231.36,258.78c-5.74,0-10.53-1.55-14.3-4.64-8.24-6.76-8.66-18.32-9.01-27.61-.11-2.95-.28-7.55-.87-9.89-5.12,1.8-15.72,12.09-20.48,16.7-6.71,6.51-10.1,9.71-13.66,11.11-3.44,1.36-7.08.79-9.74-1.53-4.84-4.2-3.45-10.01-1.53-18.06,1.58-6.61,5.27-22.08.25-23.4-6.18-1.62-19.82,12.24-31.54,28.94-2.35,5.74-5.64,11.14-10.38,15.94-3.02,3.06-7.85,3.4-11.27.8-3.42-2.6-4.38-7.34-2.24-11.07,1.89-3.29,4.93-8.36,8.79-14.05,2.67-7.44,3.65-16.2,4.72-25.77.51-4.54,1.03-9.23,1.77-14,.72-4.67,5.08-7.88,9.76-7.15,4.67.72,7.87,5.09,7.15,9.76-.56,3.66-1.01,7.38-1.42,11.03,9.21-8.2,19.33-13.52,29.02-10.97,14.87,3.91,16.26,17.84,14.74,30.1,11.64-10.85,24.85-20.77,35.86-13.13,7.49,5.2,7.84,14.76,8.18,24.01.19,5.23.48,13.15,2.76,15.01.99.81,3.5.99,6.71.47,4.66-.77,9.06,2.41,9.81,7.08.76,4.66-2.41,9.06-7.08,9.81-2.1.34-4.1.51-5.99.51ZM206.76,215.51h0Z"/>
</svg>