<?xml version="1.0" encoding="UTF-8"?>
<svg id="Layout" xmlns="http://www.w3.org/2000/svg" viewBox="0 0 350 350">
  <path d="M281.78,284.85c-.69,0-1.39-.14-2.08-.44-48.83-21.46-54.78-102.27-54.24-146.23-17.29,33.5-47.6,84.68-71.39,84.69-1.18,0-2.33-.12-3.47-.38-5.09-1.15-8.9-4.56-11.01-9.87-7.19-18.04,8.23-59.31,21.23-88.52-36.38,38.91-54.69,84.96-64.26,109.06-6.5,16.36-8.94,22.4-14.79,22.25-1.8-.07-5.08-1.02-6.9-6.58-8.3-25.42,7.33-59.12,21.12-88.86,7.33-15.8,18.4-39.68,13.9-43.06-2.64-1.98-3.36-6-1.61-8.99,1.75-2.98,5.31-3.8,7.95-1.82,13.12,9.85,2.88,31.92-10.08,59.88-9.97,21.49-21.95,47.34-22.1,66.96.68-1.68,1.37-3.42,2.04-5.11,11.78-29.64,36.29-91.32,90.41-135.17,2.2-1.78,5.2-1.59,7.2.47,2,2.06,2.46,5.41,1.1,8.06-16.78,32.62-41.06,90.28-34.76,106.09.58,1.46,1.37,2.16,2.8,2.48,17.3,3.89,54.04-57.62,74.63-102.56,1.27-2.78,4.12-4.13,6.76-3.22,2.65.91,4.34,3.82,4.03,6.93-.14,1.35-12.83,135.74,45.59,161.41,2.95,1.3,4.42,5.05,3.27,8.39-.88,2.57-3.05,4.14-5.35,4.14Z"/>
</svg>