<?xml version="1.0" encoding="UTF-8"?>
<svg id="Layout" xmlns="http://www.w3.org/2000/svg" viewBox="0 0 350 350">
  <path d="M193.69,262.71c-4.37,0-8.27-3.28-11.62-9.77-13.64-26.46-16.24-64.2-15.72-93.47-3.49,9.52-7.2,19.36-10.87,29.11-9.12,24.18-17.73,47.02-20.11,57.99-.67,3.1-3.73,5.06-6.83,4.39-3.1-.67-5.06-3.73-4.39-6.82,2.57-11.8,10.92-33.95,20.59-59.6,9.32-24.71,19.56-51.88,24.95-71.08,1.54-12.41,3.45-22.45,5.32-24.38,1.71-1.77,4.42-2.27,6.64-1.23,4.02,1.9,3.57,5.74,3.01,10.61-.53,4.61-1.8,10.38-3.62,16.99-4.02,32.21-7.88,95.21,11.22,132.25.59,1.14,1.09,1.96,1.5,2.53,8.53-12.65,16.56-89.55,19.31-157.39.13-3.16,2.77-5.56,5.96-5.5,3.17.13,5.63,2.8,5.5,5.96-.02.4-1.67,40.59-5.49,80.74-7.47,78.51-15.96,86.82-23.33,88.45-.69.15-1.36.23-2.03.23ZM173.57,93.68h0Z"/>
</svg>