<?xml version="1.0" encoding="UTF-8"?>
<svg id="Layout" xmlns="http://www.w3.org/2000/svg" viewBox="0 0 350 350">
  <path d="M128.29,258.3c-.11,0-.22,0-.32,0-3.16-.17-5.59-2.88-5.41-6.05.03-.5,2.75-50.3.47-78.86-2.29-28.65,4.07-47.96,17.03-51.67,3.04-.89,6.22.89,7.09,3.94.87,3.05-.89,6.22-3.94,7.09-4.69,1.34-10.88,13.02-8.75,39.72,2.35,29.34-.33,78.34-.45,80.42-.17,3.05-2.7,5.42-5.72,5.42ZM211.56,154.29c21.48-14.04,27.27-32.43,25.53-44.96-1.46-10.52-8.04-18.58-17.59-21.56-11.31-3.53-30.55.03-49.16,3.48-13.36,2.48-28.51,5.29-33.5,3.56-3-1.03-6.26.56-7.29,3.55-1.04,3,.55,6.26,3.55,7.3,7.86,2.71,22.45,0,39.34-3.12,16.43-3.04,35.06-6.5,43.65-3.81,5.28,1.65,8.8,6.09,9.64,12.19,1.26,9.04-3.46,22.66-20.44,33.77-40.01,26.16-51.6,28.3-54.33,28.3h-.05c-1.55-2.07-4.37-2.89-6.85-1.82-2.91,1.25-4.26,4.62-3.01,7.53,1.09,2.53,3.2,4.39,5.95,5.22.88.26,2.03.61,3.86.61,6.33,0,20.82-4.16,60.7-30.24Z"/>
</svg>