<?xml version="1.0" encoding="UTF-8"?>
<svg id="Layout" xmlns="http://www.w3.org/2000/svg" viewBox="0 0 350 350">
  <path d="M134.33,338.34c-.35,0-.7-.02-1.06-.07-4.69-.58-8.02-4.85-7.44-9.54,3.21-26.06,9.5-52.02,17.6-74.98-.99.26-1.98.51-2.98.76-4.59,1.13-9.22-1.67-10.36-6.26-1.13-4.59,1.67-9.22,6.26-10.36,5.33-1.31,10.3-2.72,14.94-4.19,11.92-27.39,26.3-48.08,40.26-55.53,9.14-4.88,16.25-3.26,20.61-1.06,8.61,4.36,12.96,12.03,11.94,21.03-2.07,18.14-25.34,36.74-60.13,49.27-9.19,22.67-17.17,51.16-21.14,83.39-.53,4.33-4.22,7.51-8.48,7.51ZM203.21,192.13c-.97,0-2.18.39-3.62,1.16-7,3.73-16.06,14.71-24.99,31.32,22.72-10.92,31.85-22.73,32.49-28.38.11-.99.27-2.35-2.67-3.83-.35-.18-.75-.26-1.21-.26Z"/>
</svg>