<?xml version="1.0" encoding="UTF-8"?>
<svg id="Layout" xmlns="http://www.w3.org/2000/svg" viewBox="0 0 350 350">
  <path d="M143.98,249.38c-4.14,0-7.77-3.01-8.44-7.22-.74-4.67,2.45-9.05,7.11-9.78,12.17-1.92,22.04-15.27,28.18-26.12.65-1.15.86-1.85.92-2.17-.96-1.14-4.58-2.96-6.58-3.96-2.77-1.39-5.64-2.83-8.12-4.77-3.16-2.48-4.86-6.1-4.65-9.93.51-9.5,11.37-16.69,35.9-32.04,4.21-2.63,8.62-5.39,13.1-8.27,3.97-2.55,9.27-1.4,11.82,2.57,2.55,3.97,1.4,9.27-2.57,11.82-4.54,2.91-9.01,5.71-13.27,8.38-8.97,5.61-19.62,12.28-25.01,16.71.16.08.32.16.48.24,5.78,2.9,12.98,6.5,15.35,14.3,1.47,4.83.64,10.06-2.47,15.55-11.46,20.27-25.43,32.23-40.4,34.6-.45.07-.9.11-1.34.11Z"/>
</svg>