<?xml version="1.0" encoding="UTF-8"?>
<svg id="Layout" xmlns="http://www.w3.org/2000/svg" viewBox="0 0 350 350">
  <path d="M166.68,250.92c-12.07,0-24.91-2.69-37.83-8.1-2.92-1.22-4.3-4.58-3.07-7.51,1.22-2.92,4.58-4.31,7.51-3.07,34.52,14.45,56.88,3.61,64.88-1.72,9.42-6.27,15.04-15.04,15.04-23.46s-12.11-15.71-24.94-23.87c-17.86-11.38-40.09-25.53-42.98-49.55-2.38-19.78,4.68-28.13,11.02-31.66,12.47-6.95,30.47-.16,39.27,6.87,6.81,5.45,9.91,11.15,9.19,16.94-.64,5.21-4.33,9.6-10.39,12.38-2.89,1.33-6.29.05-7.61-2.82-1.32-2.88-.06-6.29,2.82-7.61,2.46-1.13,3.67-2.5,3.78-3.35.13-1.09-1.09-3.47-4.97-6.58-6.33-5.07-19.48-9.72-26.52-5.81-5.92,3.3-6.1,12.84-5.21,20.27,2.24,18.63,21.11,30.64,37.75,41.25,15.55,9.91,30.25,19.26,30.25,33.55,0,12.27-7.53,24.61-20.15,33.01-10.84,7.22-23.82,10.84-37.84,10.85Z"/>
</svg>