<?xml version="1.0" encoding="UTF-8"?>
<svg id="Layout" xmlns="http://www.w3.org/2000/svg" viewBox="0 0 350 350">
  <path d="M234.87,164.37c-11.77,3.43-28.01,12.33-44.67,22.86,22.39-25.52,43.92-51.61,55.73-67.85,2.78-3.82,1.93-9.17-1.89-11.95-3.82-2.78-9.17-1.93-11.95,1.89-15.37,21.14-47.48,59.25-76.05,90.47-8.58,1.13-15.03-.03-20.7-1.78-3.96-1.22-8.16.99-9.38,4.95-1.22,3.96.99,8.16,4.95,9.38,3.38,1.05,7.06,1.95,11.17,2.46-9.63,10.15-18.37,18.89-25.27,25.12-3.43,3.1-3.78,8.36-.79,11.88,2.99,3.52,8.23,4.04,11.85,1.16.76-.6,73.52-59.2,108.37-71.03,12.04-4.08,25.36-.38,25.36-8.81,0-10.09-12.27-12.96-26.72-8.74Z"/>
</svg>