<?xml version="1.0" encoding="UTF-8"?>
<svg id="Paths" xmlns="http://www.w3.org/2000/svg" viewBox="0 0 350 350">
  <path d="M139.22,255.2c-.34,0-.65-.02-.9-.05-3.64-.4-6.59-3.38-7.06-7-.66-5.15,8.5-41.39,26.86-61.34,15.86-34.11,34.62-76.28,39.88-101.49.9-4.29,5.12-7.04,9.39-6.14,4.29.9,7.04,5.1,6.15,9.39-4.55,21.78-17.62,53.43-31.25,83.64,27.33-11.19,36.63-18.63,39.47-21.46,3.1-3.1,8.12-3.1,11.22,0,3.1,3.1,3.1,8.12,0,11.22-10.54,10.54-35,21.31-53.66,28.49-2.73,1.05-5.36,2.88-7.84,5.26-2.66,5.7-5.25,11.22-7.72,16.47-7.57,16.11-14.11,30.03-16.5,36.58-2.02,5.54-5.82,6.43-8.04,6.43Z"/>
</svg>