<?xml version="1.0" encoding="UTF-8"?>
<svg id="Layout" xmlns="http://www.w3.org/2000/svg" viewBox="0 0 350 350">
  <path d="M139.06,252.5c-3.2,0-6.1-1.55-7.74-4.27-1.03-1.7-2.92-6.26,1.72-11.72,4.64-6.31,10.49-47.11,7.77-54.5-2.04-4.26-.21-9.31,4.05-11.34,4.27-2.04,9.4-.17,11.44,4.09,3.46,7.24,2.26,28.44-1.19,46.42.52-.75.86-1.42.99-1.97.44-4.26,3.95-7.48,8.23-7.62,4.4-.09,7.99,2.98,8.7,7.2.58,3.46,1.56,7.22,2.56,10.11,13.54-11.06,43.73-47.03,40.33-63.14-.98-4.62,1.98-9.16,6.6-10.14,4.61-.98,9.16,1.98,10.14,6.6,6.12,29.02-39.23,76.2-52.03,83.96-6.85,4.16-11.34,2.51-13.91.39-2.11-1.74-3.85-4.3-5.26-7.16-7.43,6.83-16.35,11.98-20.15,12.83-.76.17-1.52.25-2.26.25Z"/>
</svg>