<?xml version="1.0" encoding="UTF-8"?>
<svg id="Layout" xmlns="http://www.w3.org/2000/svg" viewBox="0 0 350 350">
  <path d="M237.72,183.56c0-4.72-3.83-8.55-8.55-8.55-18.31,0-42.31,7.61-65.28,22.13-9.65-6.49-18.47-13.22-24.72-19.57-3.31-3.37-8.73-3.42-12.1-.11-3.37,3.31-3.42,8.73-.11,12.1,5.87,5.98,13.6,12.14,22.08,18.12-13.1,10.35-25.34,23.03-35.32,38-2.62,3.93-1.56,9.24,2.37,11.86,1.46.97,3.11,1.44,4.74,1.44,2.77,0,5.48-1.34,7.13-3.81,9.93-14.89,22.64-27.52,36.17-37.47,25.8,16.23,52.63,29.19,54.34,30.01,1.19.57,2.46.85,3.7.85,3.19,0,6.25-1.79,7.72-4.85,2.04-4.26.25-9.37-4.01-11.41-.37-.18-22.75-10.98-45.8-24.87,17.54-9.89,35.21-15.3,49.08-15.3,4.72,0,8.55-3.83,8.55-8.55Z"/>
</svg>