<?xml version="1.0" encoding="UTF-8"?>
<svg id="Layout" xmlns="http://www.w3.org/2000/svg" viewBox="0 0 350 350">
  <path d="M119.83,344.94c-2.05,0-4.1-.73-5.74-2.22-3.5-3.17-3.77-8.58-.59-12.08,32.55-35.9,102.08-106.35,110.32-137.18-3.93,1.84-9.83,5.69-14.51,8.74-18.05,11.77-45.34,29.55-85.36,31.54-6.52.33-11.83-2.72-14.24-8.15-6.47-14.59,11.4-41.52,17.96-48.08,3.34-3.34,8.75-3.34,12.1,0,3.34,3.34,3.34,8.76,0,12.1-6.22,6.22-13.15,20.34-14.25,26.89,34.17-2.38,57.39-17.51,74.45-28.63,14.42-9.4,25.82-16.82,36.67-9.9,1.57,1,4.3,3.4,4.95,8.19,3.45,25.78-83.59,120.86-115.41,155.97-1.69,1.86-4.01,2.81-6.34,2.81ZM125.44,218.92h.03-.03Z"/>
</svg>