<?xml version="1.0" encoding="UTF-8"?>
<svg id="Layout" xmlns="http://www.w3.org/2000/svg" viewBox="0 0 350 350">
  <path d="M240.89,69.09c-1.21-4.23-3.62-6.2-5.42-7.1-2.73-1.37-6.05-.26-7.42,2.47-1.29,2.59-.37,5.71,2.06,7.19,1.68,3.11-.11,17.11-7.1,28.55-2.61,4.28-6.26,12.06-10.88,21.92-9.74,20.77-24.45,52.17-34.63,59.27l-3.61,2.51c-2.76,1.91-5.41,3.74-7.94,5.58-.14-.42-.32-.84-.57-1.23-10.26-16.29,4.42-59.37,16.08-82.69,1.37-2.73.26-6.06-2.47-7.42-2.74-1.37-6.05-.26-7.42,2.47-1.34,2.69-32.74,66.22-15.55,93.53.47.75,1.09,1.33,1.79,1.76-6.89,6.04-12.52,13.03-16.57,23.4-1.14,2.92-2.56,6-4.06,9.27-5.38,11.73-10.94,23.85-6.36,33.6,2.38,5.05,7.14,8.56,14.14,10.43.48.13.96.19,1.43.19,2.44,0,4.68-1.63,5.34-4.11.79-2.95-.97-5.98-3.92-6.77-5.59-1.49-6.64-3.72-6.98-4.45-2.4-5.09,2.28-15.28,6.4-24.27,1.5-3.27,3.05-6.64,4.3-9.85,5.65-14.43,14.79-20.76,28.64-30.35l3.64-2.53c11.66-8.13,24.25-33.64,38.32-63.65,4.3-9.17,8.01-17.09,10.3-20.84,7.26-11.88,10.97-28.08,8.45-36.88Z"/>
</svg>