<?xml version="1.0" encoding="UTF-8"?>
<svg id="Layout" xmlns="http://www.w3.org/2000/svg" viewBox="0 0 350 350">
  <path d="M217.19,63.61c-2.03-1.56-4.85-1.59-6.92-.09-.48.35-1.19,1.37-2.09,2.95-.33.58-.68,1.23-1.05,1.95-2.83,3.93-8.7,5.21-13.44,5.57-14.48,1.08-41.14,26.73-60.96,48.05-2.17,2.34-2.04,5.98.3,8.16,2.33,2.17,5.99,2.03,8.16-.3,24.52-26.38,45.47-43.81,53.37-44.4,1.82-.14,3.52-.36,5.1-.65-5.6,13.32-12.13,30.54-16.71,44.74-11.85,36.7-17.27,86.58-14.96,108.51-11.08.08-22.47-.37-30.69-1.73-3.14-.53-6.12,1.6-6.64,4.74-.52,3.14,1.6,6.12,4.74,6.64,8.28,1.38,19.29,1.93,30.27,1.93,1.46,0,2.92-.01,4.37-.03.45,1.73.96,3.41,1.53,5.02.84,2.36,3.06,3.84,5.44,3.84.64,0,1.29-.11,1.93-.34,3-1.07,4.57-4.37,3.5-7.37-.17-.49-.34-1-.5-1.5,12.07-.56,22.16-1.68,25.76-2.88,3.02-1.01,4.66-4.28,3.65-7.3-1.01-3.03-4.28-4.65-7.3-3.65-2.75.91-12.63,1.89-24.5,2.36-5.39-46.02,27.92-143.79,37.03-162.75,1.05-1.5,1.82-3.02,2.37-4.46,1.6-4.15-1.19-6.56-1.77-7Z"/>
</svg>