<?xml version="1.0" encoding="UTF-8"?>
<svg id="Layout" xmlns="http://www.w3.org/2000/svg" viewBox="0 0 350 350">
  <path d="M168.61,257.45c-5.61,0-11.03-.67-16.03-2.06-13.1-3.65-22.35-12-26.03-23.51-5.87-18.35,14.98-38.2,39.12-61.19,19.73-18.78,42.1-40.07,43.12-57.02.39-6.42-1.29-11-5.13-13.99-11.02-8.56-38.65-4.11-54.54.97-3.04.97-6.28-.7-7.26-3.74-.97-3.04.7-6.28,3.74-7.25,4.64-1.49,45.88-14.07,65.14.91,4.79,3.73,10.34,10.88,9.56,23.8-1.3,21.48-24.37,43.45-46.69,64.69-18.64,17.74-39.76,37.84-36.09,49.31,3.15,9.84,11.6,14.08,18.14,15.91,18.17,5.07,43.07-1.47,59.21-15.55,2.4-2.09,6.05-1.85,8.14.55,2.1,2.4,1.85,6.05-.55,8.14-14.49,12.64-35.22,20.03-53.86,20.03Z"/>
</svg>