<?xml version="1.0" encoding="UTF-8"?>
<svg id="Layout" xmlns="http://www.w3.org/2000/svg" viewBox="0 0 350 350">
  <path d="M205.56,251.71c-.41,0-.82-.04-1.24-.13-3.11-.68-5.09-3.76-4.41-6.87.08-.37,8.1-52.29,7.53-86.04-.18-10.45.95-21.99,2.65-33.14-3.51,3.15-6.8,6.17-9.52,9.47-16.84,20.45-70.89,9.96-71.42,9.84-12.74-2.82-9.02-20.63-6.03-34.94.26-1.26.52-2.49.75-3.65,2.01-10.04.03-18.54-5.03-21.65-2.71-1.67-3.56-5.23-1.89-7.94,1.67-2.71,5.22-3.56,7.94-1.89,9.36,5.76,13.31,18.69,10.29,33.75-.24,1.19-.5,2.44-.77,3.74-1.14,5.48-3.77,18.07-2.29,21.43,13.66,2.9,50.24,5.27,59.54-6.02,3.54-4.3,7.73-8.04,11.78-11.67,3.68-3.29,7.19-6.44,10.18-9.86,3.76-17.98,7.89-31.77,8.21-32.84.78-2.57,3.2-4.26,5.89-4.09,2.68.17,4.88,2.17,5.32,4.81,2.85,17.1-1.75,28.4-8.66,37.2-3.03,15.02-5.66,32.52-5.41,47.25.59,35.12-7.45,87.13-7.79,88.7-.59,2.7-2.98,4.54-5.63,4.54Z"/>
</svg>