<?xml version="1.0" encoding="UTF-8"?>
<svg id="Layout" xmlns="http://www.w3.org/2000/svg" viewBox="0 0 350 350">
  <path d="M151.45,261.26c-.45,0-.91-.05-1.36-.16-3.1-.75-5-3.87-4.25-6.97,5.11-21.09,56.77-130.16,68.53-141.3,6.01-5.69,9.69-12.95,9.92-15.65-1.25-.16-4.78-.15-12.76,2.84-39.68,14.88-86.79,15.54-96.94-9.1-1.21-2.95.19-6.32,3.14-7.53,2.95-1.21,6.32.19,7.53,3.14,6.26,15.2,45.45,16.48,82.22,2.69,5.16-1.94,20.87-7.83,26.71,1.51,6.19,9.9-6.47,25.36-11.87,30.47-11.34,10.74-61.07,118.37-65.25,135.64-.64,2.64-3,4.41-5.6,4.41Z"/>
</svg>