<?xml version="1.0" encoding="UTF-8"?>
<svg id="Layout" xmlns="http://www.w3.org/2000/svg" viewBox="0 0 350 350">
  <path d="M210.51,253.06c-2.73,0-5.15-1.94-5.67-4.72-6.76-36.42-5.14-76.04-2.93-100.9-9.36,9.56-21.93,18.34-33.63,22.48-14.64,5.18-23.1,1.43-27.62-2.62-4.6-4.12-6.99-9.38-6.94-15.22.16-16.34,18.7-33.67,37.67-50.03,13.27-11.43,23.07-11.85,28.96-10.21,5.03,1.42,11.83,5.61,15.66,17.53.98,3.03-.69,6.28-3.73,7.26-3.03.99-6.29-.69-7.26-3.73-1.25-3.89-3.62-8.77-7.8-9.95-4.47-1.25-10.98,1.53-18.3,7.84-11.72,10.11-33.54,28.91-33.66,41.4-.02,2.52.96,4.59,3.1,6.51,3.97,3.56,10.93,2.14,16.06.33,18.16-6.42,38.81-26.62,40.39-36.44.51-3.14,3.47-5.29,6.61-4.78,3.14.5,5.29,3.46,4.79,6.6-.1.66-10.32,66.32-.02,121.81.58,3.13-1.49,6.14-4.62,6.73-.36.07-.71.1-1.06.1Z"/>
</svg>