<?xml version="1.0" encoding="UTF-8"?>
<svg id="Layout" xmlns="http://www.w3.org/2000/svg" viewBox="0 0 350 350">
  <path d="M146.72,233.65c-1.18,0-2.36-.4-3.32-1.22-2.17-1.84-2.44-5.09-.6-7.26,6.01-7.11,35.02-19.21,35.31-19.33,1.09-.44,2.38-.93,3.79-1.47,3.71-1.4,14.84-5.62,16.19-8.45-.2-.36-.97-1.42-3.56-3.03-16.92-10.49-41.54-35.61-42.07-45.14-.16-2.84,2.02-5.27,4.86-5.43,2.76-.17,5.19,1.94,5.42,4.71,1.15,4.69,19.66,26.21,37.22,37.1,6.05,3.75,8.89,8.03,8.44,12.71-.86,8.85-13.05,13.46-22.85,17.17-1.32.5-2.53.96-3.55,1.37-11.97,4.87-28.78,13.42-31.34,16.45-1.02,1.2-2.47,1.82-3.94,1.82ZM198.14,196.06h.02-.02ZM162.73,147.12s0,.04,0,.06c0-.02,0-.04,0-.06Z"/>
</svg>