<?xml version="1.0" encoding="UTF-8"?>
<svg id="Layout" xmlns="http://www.w3.org/2000/svg" viewBox="0 0 350 350">
  <path d="M165.43,263.84c-5.33,0-11.18-.83-17.54-2.5-2.45-.64-3.91-3.14-3.28-5.59.64-2.45,3.15-3.93,5.59-3.28,28.93,7.55,38.29-6.29,43.21-19.18,4.69-12.3-9.2-24.83-16.65-28.98-3.11-1.73-4.2-4.19-4.57-5.95-1.17-5.64,3.41-11.63,7.45-16.91.46-.59.99-1.29,1.51-1.99-2.65-.02-5.66-.43-7.84-2.7-1.13-1.17-2.41-3.28-2.17-6.71.55-7.65,6.5-12.25,12.26-16.7,6.64-5.13,12.9-9.97,12.99-19.49.09-10.1-7.16-17.49-14.37-19.56-3.26-.94-9.3-1.57-13.16,4.7-1.32,2.16-4.14,2.83-6.3,1.5-2.16-1.32-2.83-4.14-1.5-6.3,4.98-8.11,13.98-11.44,23.49-8.7,10.54,3.03,21.14,13.78,21,28.45-.13,13.96-9.23,21-16.54,26.65-4.36,3.37-8.15,6.3-8.67,9.68.8.06,1.92.02,2.62,0,2.81-.1,5.99-.2,8.13,2.27.69.81,1.79,2.55,1.3,5.21-.51,2.8-2.69,5.66-5.46,9.27-1.84,2.4-5.58,7.3-5.75,9.26.01,0,.03.02.04.02,11.52,6.4,27.35,22.99,20.76,40.25-6.96,18.25-18.99,27.28-36.53,27.28Z"/>
</svg>