<?xml version="1.0" encoding="UTF-8"?>
<svg id="Layout" xmlns="http://www.w3.org/2000/svg" viewBox="0 0 350 350">
  <path d="M185.82,172.42c.29-7.4.63-14.47,1-20.8,1-16.97-.83-39.26-2.93-58.75,5.72.47,11.65,2.31,14.76,7.3,3.61,5.8,2.27,13.81.16,17.64-1.22,2.22-.41,5,1.81,6.22,2.21,1.22,5,.41,6.22-1.81,3.81-6.92,4.89-18.38-.41-26.89-3.22-5.17-9.91-11.08-23.57-11.69-.47-4.07-.93-7.97-1.36-11.54-.97-8.1-1.74-14.5-1.92-17.82-.14-2.53-2.33-4.47-4.83-4.32-2.53.14-4.46,2.3-4.32,4.83.2,3.61.98,10.13,1.97,18.4.4,3.36.84,7.01,1.28,10.82-13.71,1.71-25.22,8.66-31.99,19.48-6.34,10.15-7.65,22.56-3.4,32.37,6.3,14.56,22.48,27.91,38.28,40.82-.7,19.1-1.36,44.94-.73,63.28-10.51-3.44-24.09-10.7-41.18-24.8-1.95-1.61-4.84-1.33-6.45.62-1.61,1.95-1.33,4.84.62,6.45,19.51,16.09,35.21,24.06,47.53,27.47.46,5.85,1.16,10.12,2.17,11.93.85,1.51,2.43,2.37,4.05,2.37.75,0,1.51-.18,2.2-.58,2.21-1.24,3.01-3.98,1.78-6.19-.4-.91-.72-2.9-.98-5.7,1.97.23,3.84.34,5.58.34,6.63,0,11.64-1.48,15.19-3.15,10.32-4.87,16.49-15.22,16.49-27.69,0-17.53-17.61-32.72-37.02-48.62ZM146.7,132.23c-3.07-7.09-2.01-16.25,2.76-23.88,3.17-5.08,10.55-13.44,25.24-15.25,2.1,19.31,3.95,41.45,2.98,57.99-.01.23-.3,5.71-.66,14.13-13.11-10.83-25.55-21.94-30.32-32.98ZM202.45,240.44c-3.08,1.45-8.74,3.07-17.4,1.77-.51-14.44-.29-36.82.38-58.24,14.96,12.5,28.26,25.19,28.26,37.07,0,8.97-4.09,16.04-11.24,19.4Z"/>
</svg>