<?xml version="1.0" encoding="UTF-8"?>
<svg id="Layout" xmlns="http://www.w3.org/2000/svg" viewBox="0 0 350 350">
  <path d="M164.72,251.3c-5.74,0-10.44-.1-12.49-.15-2.42-.06-4.38-2-4.46-4.42-.55-16.35-3.02-98.54,2.76-111.05,4.55-9.85,15.89-11.88,26.85-13.85,5.87-1.05,11.94-2.14,17.15-4.35,2.33-.98,5.02.1,6,2.43.99,2.33-.1,5.02-2.43,6.01-6.15,2.61-12.74,3.79-19.11,4.93-9.45,1.69-17.6,3.16-20.15,8.67-3.61,7.83-3.21,65.26-2.06,102.56,14.49.2,35.22-.17,40.21-2.11,2.36-.91,5.01.25,5.93,2.61.92,2.36-.25,5.01-2.61,5.93-6.03,2.34-23.22,2.8-35.59,2.8Z"/>
</svg>