<?xml version="1.0" encoding="UTF-8"?>
<svg id="Layout" xmlns="http://www.w3.org/2000/svg" viewBox="0 0 350 350">
  <path d="M172.55,268.5c-9.62,0-18.25-1.56-22.83-6.14-9.13-9.13.09-19.16,8.23-28.01,7.45-8.1,15.89-17.29,17.71-28.62.31-1.9-.31-2.59-.58-2.89-.95-1.05-4.42-3.43-16.28-2.82-4.67.23-5.55-2.71-5.71-3.98-.2-1.59.14-4.39,4.68-5.3,5.91-1.18,22.42-12.84,24.42-23.75-2.33-1.37-11.44-1.24-16.98-1.16-14.13.21-28.73.42-33.56-9.25-2.69-5.38-1.72-12.41,2.89-20.88,8.3-15.26,28.81-34.21,42.79-35.76,2.52-.29,4.78,1.53,5.06,4.04.28,2.51-1.53,4.78-4.04,5.06-9.76,1.09-28.15,17.04-35.76,31.04-2.96,5.45-3.96,9.97-2.74,12.41,2.26,4.52,16.08,4.32,25.23,4.19,11.29-.16,20.2-.3,24.33,4.53,1.17,1.37,2.43,3.72,1.84,7.2-1.62,9.41-9.34,17.96-17.13,23.76,2.99.89,5.78,2.31,7.79,4.55,1.74,1.93,3.63,5.32,2.81,10.46-2.26,14.06-12.1,24.76-20.01,33.37-9.28,10.1-10.87,12.96-8.49,15.34,6.77,6.77,37.93,2.39,57.89-2.88,2.45-.64,4.95.81,5.6,3.26.65,2.45-.81,4.95-3.26,5.6-5.72,1.51-26.43,6.64-43.88,6.65Z"/>
</svg>