<?xml version="1.0" encoding="UTF-8"?>
<svg id="Layout" xmlns="http://www.w3.org/2000/svg" viewBox="0 0 350 350">
  <path d="M185.83,237.98c-7.59,0-15.9-5.74-24.79-17.15-5.45-7-11.16-16.3-15.65-25.53-7.45-15.3-5.89-17.52-4.75-19.15,5.19-7.42,18.32-13.89,33.52-21.38,10.33-5.09,21.02-10.35,28.95-15.92,2.07-1.45,4.93-.95,6.38,1.12,1.45,2.07.95,4.93-1.12,6.38-8.52,5.97-19.52,11.4-30.17,16.64-12.03,5.92-24.43,12.04-29.17,17.29,1.93,7.6,17.09,37.76,30.97,46.43,4.69,2.94,7.1,2.02,7.89,1.72,2.36-.91,5.01.28,5.91,2.65.9,2.36-.29,5.01-2.65,5.91-1.73.66-3.51.99-5.33.99Z"/>
</svg>