<?xml version="1.0" encoding="UTF-8"?>
<svg id="Layout" xmlns="http://www.w3.org/2000/svg" viewBox="0 0 350 350">
  <path d="M233.69,121.46c1.89-1.68,2.07-4.57.4-6.47-1.68-1.89-4.57-2.07-6.47-.4-6.9,6.1-13.63,11.59-20.14,16.53,3.65-13.95,8.8-26.56,12.71-33.86,1.19-2.23.36-5.01-1.87-6.2-2.23-1.19-5-.35-6.2,1.87-5.09,9.5-12.15,27.5-15.85,46.29-11.71,8.05-22.56,14.22-32.31,18.77,2.8-15.18,4.39-30.29,4.39-43.25,0-2.53-2.05-4.58-4.58-4.58s-4.58,2.05-4.58,4.58c0,13.93-2.03,30.93-5.45,47.61-11.92,4.57-21.69,6.44-28.67,6.27-2.54-.07-4.63,1.94-4.69,4.46-.06,2.53,1.93,4.63,4.46,4.69.34,0,.69.01,1.04.01,6.62,0,15.27-1.53,25.52-4.98-1.05,4.32-2.19,8.57-3.41,12.69-5.81,1.85-11.47,3.51-16.98,5.13-4.48,1.32-8.83,2.6-13.03,3.91-2.41.75-3.76,3.32-3.01,5.74.61,1.96,2.42,3.21,4.37,3.21.45,0,.91-.07,1.37-.21,4.16-1.3,8.46-2.56,12.89-3.87,3.54-1.04,7.2-2.12,10.96-3.27-7.84,22.53-7.37,47.19-7.34,48.24.06,2.49,2.1,4.47,4.58,4.47h.11c2.53-.06,4.53-2.15,4.47-4.68,0-.24-.45-24.26,6.91-45.24.71-2.03,1.4-4.11,2.07-6.22,11.92-3.97,24.74-8.93,38.25-15.94-.39,8.43-1.21,16.62-2.01,24.63-1.1,10.94-2.15,21.26-1.98,31.25.04,2.5,2.08,4.5,4.58,4.5h.08c2.53-.04,4.55-2.13,4.5-4.65-.15-9.45.86-19.52,1.94-30.18,1-9.87,2.01-20.01,2.24-30.67,9.14-5.29,18.57-11.58,28.22-19.2,1.99-1.57,2.33-4.45.76-6.43-1.57-1.98-4.45-2.32-6.43-.76-7.69,6.07-15.19,11.25-22.49,15.74.08-5.35.64-10.91,1.58-16.46,9.3-6.56,19.05-14.22,29.12-23.12ZM193.82,166.36c-12.32,6.77-24.08,11.67-35.3,15.64,1.17-4.3,2.25-8.68,3.23-13.1,9.86-4.15,20.84-9.89,32.68-17.49-.45,4.25-.7,8.47-.62,12.54.01.81,0,1.61.01,2.42Z"/>
</svg>