<?xml version="1.0" encoding="UTF-8"?>
<svg id="Layout" xmlns="http://www.w3.org/2000/svg" viewBox="0 0 350 350">
  <path d="M181.45,207.82c-9.51,0-12.86-10.48-15.34-18.25-2.29-7.16-4.14-12.23-7.16-12.23-9.09,0-17.37,9-26.96,19.41-2.2,2.39-4.45,4.84-6.78,7.25-1.76,1.82-4.65,1.87-6.48.11-1.82-1.76-1.87-4.66-.11-6.48,2.28-2.36,4.48-4.75,6.63-7.09,10.59-11.5,20.58-22.37,33.7-22.37,9.95,0,13.24,10.32,15.89,18.61,2.71,8.49,4.41,12.21,7.28,11.83,14.21-1.89,28.36-8.19,43.24-19.25,2.03-1.51,4.9-1.09,6.41.94,1.51,2.03,1.09,4.9-.94,6.41-16.16,12.01-31.7,18.87-47.49,20.98-.65.09-1.28.13-1.87.13Z"/>
</svg>