<?xml version="1.0" encoding="UTF-8"?>
<svg id="Layout" xmlns="http://www.w3.org/2000/svg" viewBox="0 0 350 350">
  <path d="M121.7,220.01c-.77,0-1.54-.16-2.29-.49-2.9-1.28-4.23-4.71-2.97-7.65,8.81-20.48,4.46-51.64,1.58-72.25-1.29-9.24-2.31-16.54-2.05-21.4.17-3.2,2.87-5.66,6.03-5.49,3.16.17,5.59,2.91,5.42,6.11-.2,3.73.8,10.88,1.96,19.15,3.06,21.91,7.68,55.03-2.43,78.53-.94,2.19-3.05,3.49-5.26,3.49ZM231.67,210.11c3.25-7.86,3.19-15.54-.18-22.81-9.7-20.93-44.45-31.84-61.67-37.15,2.53-2.47,5.81-5.49,8.7-8.15,23.66-21.78,43.07-41.09,40.92-56.87-.53-3.91-2.7-9.35-10.03-13.06-31.08-15.74-58.88-.91-83.41,12.18-2.34,1.24-4.65,2.48-6.95,3.68-2.82,1.47-3.93,4.97-2.48,7.83,1.45,2.86,4.91,3.98,7.72,2.51,2.33-1.21,4.68-2.47,7.05-3.73,23.17-12.36,47.12-25.15,72.93-12.07,3.46,1.75,3.69,3.5,3.8,4.25,1.5,11-24.69,35.1-37.27,46.68-12.83,11.81-16.71,15.38-16.05,20.2.28,2.09,1.57,3.91,3.45,4.85,1.31.66,3.31,1.29,7.72,2.65,13.01,4.01,47.55,14.66,55.19,31.15,1.96,4.23,1.95,8.6-.02,13.37-19.14,46.24-67.85,40.76-85,34.74-2.99-1.05-6.26.56-7.3,3.59-1.04,3.03.55,6.34,3.54,7.39,8.33,2.92,18.43,4.78,29.08,4.78,26.29,0,55.9-11.33,70.25-46.01Z"/>
</svg>