<?xml version="1.0" encoding="UTF-8"?>
<svg id="Layout" xmlns="http://www.w3.org/2000/svg" viewBox="0 0 350 350">
  <path d="M167.32,256.53c-7.11,0-13.9-1-20.38-3.01-23.14-7.16-41.76-27.68-52.41-57.78-17.27-48.76,16.06-104.42,33.49-116.42,14.06-9.69,33.4,5.14,42.28,16.75,9.48,12.39,6.55,18.85,3.95,21.59-2.24,2.37-5.87,2.37-8.11,0-1.87-1.98-2.18-5-.92-7.32-.93-3.69-8.61-14.08-18.47-19.4-3.05-1.64-8.73-4.02-12.48-1.44-13.45,9.26-44.32,58.71-29,101.97,5.42,15.31,18.46,42.2,44.89,50.38,26.73,8.28,60.69-3.75,100.96-35.74,2.53-2.01,6.13-1.47,8.03,1.22,1.9,2.68,1.39,6.49-1.15,8.51-34.07,27.06-64.47,40.68-90.68,40.69Z"/>
</svg>