<?xml version="1.0" encoding="UTF-8"?>
<svg id="Layout" xmlns="http://www.w3.org/2000/svg" viewBox="0 0 350 350">
  <path d="M263.89,167.9c-6.78-29.99-32.23-59.31-61.88-71.31-44.52-18.02-72.86,9.63-85.54,22.26,0,0-3.44,4.76-.17,8.07,4.85,4.9,8.52,1.48,8.52,1.48,12.11-12.06,35.18-35.06,73.32-19.62,25.86,10.46,48.84,36.67,54.64,62.32,4.08,18.05.15,34.82-11.68,49.85-34.43,43.73-125.56,5.69-126.48,5.29,0,0-.02,0-.03,0,.51-1.61,1.02-3.22,1.53-4.83,7.1-22.39,15.16-47.77,11.49-70.5-1.52-9.44-5.28-16.17-11.18-20.02-7.05-4.6-16.87-4.57-28.42.09-2.98,1.2-4.54,4.91-3.47,8.28,1.07,3.37,4.35,5.12,7.33,3.92,8.15-3.29,14.84-3.67,18.82-1.07,2.89,1.88,4.73,5.52,5.63,11.12,3.11,19.31-4.39,42.95-11.01,63.81-6.4,20.17-11.45,36.1-7.42,47.4.9,2.52,3.05,4.05,5.32,4.05.71,0,1.44-.15,2.14-.47,2.94-1.34,4.36-5.11,3.17-8.43-1.5-4.2-.08-12.03,2.39-21.08,4.56,1.91,40.49,16.43,76.7,16.43,23.35,0,46.81-6.04,62.04-25.38,14.32-18.18,19.24-39.5,14.23-61.66Z"/>
</svg>