<?xml version="1.0" encoding="UTF-8"?>
<svg id="Layout" xmlns="http://www.w3.org/2000/svg" viewBox="0 0 350 350">
  <path d="M157.36,142.17c-1.36,0-2.72-.56-3.81-1.69-2.37-2.45-2.58-6.67-.48-9.43,6.37-8.35,14.3-18.73,33.24-24.75,16.34-5.19,66.99-37.3,67.5-37.62,2.79-1.77,6.27-.57,7.78,2.66,1.52,3.24.49,7.3-2.29,9.06-2.13,1.35-52.35,33.19-69.98,38.79-15.65,4.97-21.77,12.98-27.68,20.73-1.13,1.48-2.71,2.24-4.29,2.24ZM215.94,196.99c-2.32-2.51-5.95-2.35-8.11.35-10.61,13.32-42.29,47.94-61.3,48.22-3.68.13-6.31-1.15-8.5-3.77-10.68-12.74-10.78-28.74-7.05-44.83,1.77,2.93,4.57,4.62,7.99,4.78.08,0,.17,0,.25,0,8.89,0,41.83-19.75,53.97-38.6,1.9-2.95,1.39-7.14-1.15-9.35-2.53-2.21-6.13-1.62-8.03,1.34-9.77,15.17-35.7,30.27-43.34,32.88.2-1.05.63-2.49,1.43-4.2,1.51-3.25.47-7.3-2.32-9.05-.49-.31-1.01-.52-1.53-.65,1.28-3.37,2.59-6.66,3.85-9.86,3.48-8.76,6.48-16.33,7.59-22.45,1.42-7.82.22-13.47-3.57-16.79-7.06-6.18-18.58.13-31.79,8.36l-1.84,1.14c-2.8,1.73-3.87,5.77-2.38,9.03s4.96,4.5,7.75,2.77l1.88-1.17c3.81-2.37,14.89-9.27,19.06-9.33,0,.63-.05,1.66-.34,3.2-.85,4.65-3.6,11.58-6.78,19.62-10.15,25.6-25.5,64.29-1.86,92.48,4.34,5.18,9.88,7.8,16.49,7.8.13,0,.25,0,.38,0,27.33-.41,65.32-47.16,69.56-52.49,2.15-2.71,2.02-6.93-.31-9.44Z"/>
</svg>