<?xml version="1.0" encoding="UTF-8"?>
<svg id="Layout" xmlns="http://www.w3.org/2000/svg" viewBox="0 0 350 350">
  <path d="M153.66,261.8c-2.86,0-5.59-1.44-7.2-3.93-2-3.11-11.8-22.07-8.34-90.09,2.79-54.85,21.31-82.86,37.71-90.78,8.55-4.13,17.56-3.56,24.72,1.55,8.11,5.79,12.38,13.86,12.03,22.71-.47,11.87-9.1,23.96-23.08,32.35-4.05,2.43-9.31,1.12-11.74-2.93-2.43-4.05-1.12-9.3,2.93-11.74,8.61-5.17,14.56-12.55,14.79-18.36.05-1.11.18-4.5-4.88-8.11-1.29-.93-3.47-1.95-7.34-.07-9.21,4.45-25.49,25.51-28.07,76.24-.17,3.33-.3,6.53-.41,9.6,9.32-9.36,35.39-7.62,50.34-5.71,4.68.6,8,4.88,7.4,9.57-.6,4.69-4.92,7.99-9.57,7.4-15.05-1.92-31.71-1.59-35.78.65-2.98,6.5-4.98,37.4-4.98,63.08,0,3.8-2.5,7.14-6.14,8.21-.8.24-1.61.35-2.41.35Z"/>
</svg>