<?xml version="1.0" encoding="UTF-8"?>
<svg id="Layout" xmlns="http://www.w3.org/2000/svg" viewBox="0 0 350 350">
  <path d="M156.23,253.59c-16.49,0-30.93-12.83-38.28-34.42-5.17-15.18-3.83-60.18,5.71-81.66,17.59-39.59,59.86-60.57,75.75-65.67,3.57-1.16,7.3,1.18,8.32,5.2,1.02,4.02-1.05,8.21-4.62,9.36-10.3,3.31-50.53,19.89-67.4,57.88-5.35,12.05-9.87,55.71-5.18,69.47,5.72,16.81,16.23,25.97,28.16,24.54,13.3-1.61,30.69-17.91,37.65-58.21-17.19-5.79-20.47-8.6-19.82-15,.12-1.14,1.04-6.85,7.88-7.26,1.31-.07,4.25-.75,7.1-1.4,13.99-3.2,37.39-8.54,42.76,11.13,2.5,9.17-1.6,16.09-5.23,22.2-5.9,9.95-12.6,21.22,1.11,50.99,1.71,3.71.42,8.28-2.88,10.2-3.31,1.92-7.36.47-9.07-3.24-17.36-37.71-7.12-54.95-.35-66.36,3.04-5.12,4.13-7.25,3.56-9.35-.99-3.63-6.92-3.99-13.3-3.3,1.89,1.64,2.93,4.35,2.55,7.15-7.27,53.52-30.87,75.12-50.52,77.5-1.31.16-2.61.24-3.89.24Z"/>
</svg>