<?xml version="1.0" encoding="UTF-8"?>
<svg id="Layout" xmlns="http://www.w3.org/2000/svg" viewBox="0 0 350 350">
  <path d="M236.45,75.17c-1.76-3.48-5.8-4.75-9.02-2.85-28.79,17.09-54.67,24.63-73.89,25.25-.59-1.53-1.67-2.86-3.15-3.66-3.23-1.75-7.14-.37-8.83,3.05-7.8-1.17-13.82-3.84-17.62-7.72-2.66-2.72-6.87-2.6-9.39.29-2.52,2.88-2.4,7.43.27,10.16,5.35,5.47,13.58,9.45,24.18,11.19-.09,6.55.98,15.37,4.94,26.33,2.87,7.94,8.33,17.12,14.12,26.83,11.76,19.76,25.08,42.15,23.44,62.9-.83,10.51-5.49,12.42-7.02,13.06-9.25,3.8-27.29-3.97-36.06-12.95-2.67-2.73-6.87-2.6-9.39.28-2.52,2.88-2.41,7.43.26,10.16,8.51,8.71,25.05,17.86,39.5,17.86,3.66,0,7.19-.59,10.42-1.92,6.38-2.63,14.25-9.14,15.53-25.26,2.03-25.63-13.24-51.29-25.5-71.91-5.41-9.1-10.53-17.69-12.92-24.29-3.13-8.66-3.98-15.37-4-20.11,21.37-.16,49.33-7.84,81.51-26.93,3.22-1.91,4.39-6.28,2.63-9.76Z"/>
</svg>