<?xml version="1.0" encoding="UTF-8"?>
<svg id="Layout" xmlns="http://www.w3.org/2000/svg" viewBox="0 0 350 350">
  <path d="M166.26,339.08c-1.24,2.18-3.38,3.71-5.85,4.17-1.17.22-2.48.37-3.88.37-7.23,0-16.85-4.04-20.93-23.63-.96-4.62,2.01-9.15,6.63-10.12,4.62-.97,9.15,2.01,10.12,6.63.83,4,1.77,6.44,2.53,7.91,47.96-86.46,44.05-127.61,41-139.75-2.68,1.16-6.13,2.91-9.13,4.67-4.07,2.39-9.31,1.03-11.71-3.04-2.39-4.07-1.04-9.31,3.04-11.71,18.86-11.09,24.02-8.51,26.51-7.27,2.04,1.02,5.04,3.29,7.43,11.16,3.73,12.27,11.45,60.11-45.75,160.6ZM197.25,145.96c.5,0,1.02-.05,1.53-.14,4.65-.84,7.73-5.28,6.9-9.93-.62-3.46-.84-7.98-.45-9.35,1.7-4.37-.43-9.3-4.79-11.05-4.4-1.75-9.37.38-11.12,4.77-2.4,6-1.13,15.06-.47,18.68.75,4.13,4.35,7.02,8.4,7.02Z"/>
</svg>