<?xml version="1.0" encoding="UTF-8"?>
<svg id="Layout" xmlns="http://www.w3.org/2000/svg" viewBox="0 0 350 350">
  <path d="M252.33,67.07c-1.88-3.29-5.61-4.13-8.35-1.86-28.75,23.93-79.17,100-108.13,144.47,6.08-21.8,14.16-49.36,19.15-66.37,3.48-11.88,6.23-21.27,7.38-25.42.78-2.82,3.15-11.41-1.25-17.16-4.48-5.85-11.8-3.66-17.15-2.06-1.41.42-2.73.82-3.64.97-3.28.55-5.57,4.21-5.12,8.18.46,3.97,3.48,6.72,6.77,6.18,1.53-.26,3.16-.74,4.88-1.26,1.21-.36,3.08-.92,4.56-1.2-.1.5-.24,1.08-.43,1.76-1.11,4.02-3.84,13.35-7.31,25.16-5.43,18.51-12.86,43.87-18.61,64.45-3.2,11.43-5.5,20.04-7.04,26.3-2.48,10.09-3.98,16.19.81,19.49.88.61,1.94.97,3.06.97,1.72,0,3.56-.87,5.07-3.05,2.11-3.04,6.08-9.16,11.58-17.62,2.29-3.53,4.87-7.49,7.68-11.81,16.2,20.21,46.89,34.46,84.26,38.71.19.02.38.03.57.03,3.06,0,5.67-2.82,5.97-6.57.31-3.99-2.11-7.52-5.41-7.9-41.2-4.69-66.58-20.86-77.85-35.79,28.41-43.23,72.45-108.08,97.03-128.55,2.73-2.27,3.42-6.79,1.54-10.08Z"/>
</svg>