<?xml version="1.0" encoding="UTF-8"?>
<svg id="Layout" xmlns="http://www.w3.org/2000/svg" viewBox="0 0 350 350">
  <path d="M183.13,248.29c-5.44,0-10.91-1.14-15.87-3.44-10.14-4.72-17.2-13.66-19.87-25.18-4.01-17.28,5.9-52.61,19.27-97,3.84-12.74,7.77-25.78,9.72-34.2-.67.59-1.29,1.13-1.78,1.57-1.7,1.51-3.18,2.82-4.45,3.75-2.64,1.93-6.2,1.15-7.95-1.75-1.76-2.9-1.05-6.81,1.59-8.74.84-.61,2.18-1.8,3.6-3.07,6.18-5.49,12.02-10.68,17.43-7.84,1.29.68,4.29,2.85,4.29,8.43,0,7.1-4.18,21.31-11.56,45.81-9.52,31.58-22.55,74.84-19.05,89.92,2.26,9.76,8.44,14.46,13.23,16.68,8.07,3.75,17.95,3.23,25.19-1.32,2.75-1.73,6.25-.68,7.83,2.33,1.58,3.02.62,6.87-2.12,8.6-5.73,3.6-12.59,5.44-19.5,5.44Z"/>
</svg>