<?xml version="1.0" encoding="UTF-8"?>
<svg id="Layout" xmlns="http://www.w3.org/2000/svg" viewBox="0 0 350 350">
  <path d="M221.74,262.58c-.73,0-1.48-.09-2.22-.29-7.61-2.04-12.87-5.76-15.64-11.06-4.61-8.82-1.02-18.8,2.46-28.45,5.63-15.61,7.26-23.76-2.08-31.01-3-2.33-6.3-3.09-10.37-2.4-20.88,3.56-49.07,40.86-58.33,55.16-.04.07-.09.14-.13.21-2.58,3.95-7.86,5.07-11.82,2.5-3.95-2.56-5.09-7.85-2.53-11.81.04-.06.08-.12.12-.19,6.02-9.46,9.89-38.44,8.73-54.85-.34-4.71,3.21-8.8,7.93-9.14,4.72-.35,8.8,3.21,9.14,7.93.41,5.8.26,14.37-.6,23.6,12.85-13.95,28.97-27.59,44.62-30.26,8.76-1.5,16.98.49,23.75,5.75,20.17,15.67,12.65,36.52,7.68,50.33-1.8,5-4.52,12.55-3.39,14.72.32.62,1.8,1.63,4.91,2.46,4.56,1.22,7.27,5.91,6.05,10.48-1.02,3.82-4.48,6.34-8.26,6.34Z"/>
</svg>