<?xml version="1.0" encoding="UTF-8"?>
<svg id="Layout" xmlns="http://www.w3.org/2000/svg" viewBox="0 0 350 350">
  <path d="M160.13,251.07c-.1,0-.19,0-.29,0-8.28-.09-23.46-4.4-32.07-32.24-7.93-25.63-1.15-54.57,18.16-77.42,12.07-14.28,26.26-22.63,36.12-21.35,3.14.42,5.35,3.31,4.93,6.44-.42,3.14-3.3,5.34-6.44,4.93-4.16-.59-14.93,4.47-25.84,17.38-6.28,7.43-26,34.21-15.96,66.62,4.79,15.48,12.33,24.06,21.24,24.16,11.86.22,29.5-14.75,40.48-47.71,11.7-35.1,17.9-60.94,10.11-72.92-3.2-4.92-9.12-7.73-18.11-8.6-3.15-.3-5.46-3.11-5.16-6.26.31-3.15,3.09-5.46,6.26-5.16,12.52,1.21,21.47,5.84,26.62,13.77,10.37,15.95,4.61,42.44-8.85,82.8-11.26,33.79-31.34,55.55-51.2,55.55Z"/>
</svg>