<?xml version="1.0" encoding="UTF-8"?>
<svg id="Layout" xmlns="http://www.w3.org/2000/svg" viewBox="0 0 350 350">
  <path d="M161.02,250.01c-6.29,0-12.5-1.48-18.24-4.89-7.68-4.56-11.61-11.74-11.08-20.21,1.41-22.66,35.31-49.02,46.77-54.02.53-.23,1.07-.4,1.6-.52.71-.52,1.52-.94,2.4-1.23,7.86-2.56,24.81-3.25,32.59,12.5,7.68,15.56,1.66,35.78-15.34,51.49-10.36,9.58-24.73,16.88-38.71,16.88ZM186.97,185.62c-.5.37-1.05.69-1.65.95-9.82,4.29-35.76,26.77-36.55,39.41-.09,1.48.05,2.83,2.75,4.44,10.85,6.45,26.57-.59,36.59-9.85,9.26-8.56,16.44-21.57,11.61-31.36-3.03-6.14-10.54-4.23-12.02-3.78-.24.07-.49.14-.73.19Z"/>
</svg>