<?xml version="1.0" encoding="UTF-8"?>
<svg id="Layout" xmlns="http://www.w3.org/2000/svg" viewBox="0 0 350 350">
  <path d="M236.98,283.75c-.33-3.45-3.16-6-6.29-5.6-.87.1-1.72.14-2.55.14-19.63,0-32.49-26.15-39.84-48.19,18.85-21.28,32.97-54.74,35.75-73,2.65-17.41-.11-31.98-7.97-42.15-7.05-9.11-17.6-13.93-30.5-13.93-2.39,0-4.43,1.6-5.3,3.87-1.26-2.26-2.62-4.36-4.09-6.22-8.21-10.43-16.79-10.64-22.54-8.99-15.85,4.57-31.59,39.11-37.64,69.88-7.15,36.28-1.47,65.79,15.57,80.95,6.89,6.13,14.4,9.23,22.19,9.23,4.12,0,8.32-.87,12.54-2.62,4.39-1.82,8.68-4.58,12.82-8.03,8.9,24.52,24.31,51.78,48.87,51.78,1.26,0,2.55-.07,3.87-.22,3.15-.36,5.44-3.44,5.12-6.89ZM162.25,235.36c-8.38,3.48-16.05,1.97-23.44-4.61-19.27-17.15-14.52-53.65-11.58-68.55,6.62-33.6,21.8-58.2,29.35-60.37.67-.19,1.45-.35,2.32-.35,2.12,0,4.82.94,7.96,4.61,9.63,11.26,13.63,36.52,12.26,41.13-1.22,3.18.13,6.84,3.03,8.2,2.91,1.37,6.29-.11,7.53-3.3,2.53-6.47.41-23.96-5.41-38.7.42.11.86.16,1.31.16,9.42,0,16.94,3.28,21.75,9.49,5.61,7.25,7.48,18.31,5.4,31.96-2.31,15.21-13.82,42.46-28.52,61.38-2.02-7.59-3.17-13.41-3.55-15.42-.64-3.4-3.7-5.59-6.78-4.88-3.1.7-5.1,4.03-4.46,7.42.79,4.16,2.58,12.79,5.62,23.08-4.16,3.9-8.46,6.95-12.79,8.75Z"/>
</svg>