<?xml version="1.0" encoding="UTF-8"?>
<svg id="Layout" xmlns="http://www.w3.org/2000/svg" viewBox="0 0 350 350">
  <path d="M180.69,338.45c-5.46,0-10.87-1.06-16.06-3.54-4.86-2.33-8.35-6.38-10.09-11.73-5.76-17.66,8.36-48.76,27.64-85.28-18.91,20.25-32.18,31.81-43.05,30.2-7.61-1.11-12.8-6.61-14.23-15.09-4.35-25.67,27.45-87.83,41.8-95.31,11.16-5.82,22.9-6.7,32.18-2.4,6.43,2.97,14.86,9.92,18.55,26.15.76,3.34-.55,6.67-3.09,8.65,2.59,1.38,5.05,4.27,5.05,8.82,0,5.4-3.82,12.95-15.65,34.93-13.13,24.4-37.57,69.81-32.93,84.04.39,1.21.85,1.43,1.22,1.61,18.32,8.77,49.47-16.65,58.93-26.25,3.32-3.37,8.73-3.4,12.1-.09,3.36,3.32,3.4,8.73.09,12.1-3.87,3.93-33.72,33.21-62.44,33.21ZM141.03,251.14h0ZM186.13,169.71c-3.52,0-7.54,1.07-11.53,3.16-6.25,3.99-26.38,39.77-31.83,65.07-1.7,7.9-1.21,11.58-.84,12.98,8.03-2.74,29.3-26.26,39.73-37.8,11.43-12.64,17.8-19.68,22.76-22.6-1.8-1.17-3.17-3.02-3.69-5.28-1.72-7.58-4.77-12.43-9.05-14.41-1.61-.75-3.5-1.11-5.56-1.11Z"/>
</svg>