<?xml version="1.0" encoding="UTF-8"?>
<svg id="Layout" xmlns="http://www.w3.org/2000/svg" viewBox="0 0 350 350">
  <path d="M148.85,256.67c-.97,0-1.94-.16-2.9-.51-4.07-1.47-6.4-5.74-5.44-9.95.33-1.46,3.97-16.86,12.88-35.97,1.2-7.7.59-13.26-.37-17.68-1-4.62,1.92-9.17,6.54-10.18,3.03-.66,6.05.38,8.05,2.49,13-19.38,31.49-38.24,57.16-47.86,4.43-1.66,9.35.58,11.01,5.01,1.66,4.42-.58,9.35-5.01,11.01-30.76,11.54-49.98,39.89-61.03,62.98-2.06,10.69-6.43,22.45-13.25,35.96-1.49,2.95-4.49,4.7-7.64,4.7Z"/>
</svg>