<?xml version="1.0" encoding="UTF-8"?>
<svg id="Layout" xmlns="http://www.w3.org/2000/svg" viewBox="0 0 350 350">
  <path d="M110.81,254.21c-.11,0-.21,0-.32,0-2.36-.11-4.45-1.64-5.32-3.89-.69-1.81-2.22-5.76,14.71-59.35.66-24.93-4.31-48.12-10.44-56.69-1.84-2.58-1.25-6.16,1.33-8,2.58-1.84,6.16-1.25,8,1.33,4.89,6.84,8.76,18.83,10.89,33.16,9.35-28.24,23.36-68.72,28.44-73.77,8.42-8.38,32.29,5.99,43.74,14.75,29.5,22.58,39.74,48.98,27.39,70.63-7.65,13.42-16.98,21.71-27.72,24.63-7.87,2.15-15.35,1.2-21.94-.89,17.02,17.51,44.96,41.54,59.91,41.54,3.17,0,5.74,2.57,5.74,5.74s-2.57,5.74-5.74,5.74c-28.61,0-81.05-56.63-84.64-65.44-1.61-3.96.54-6.49,1.23-7.17.7-.68,3.27-2.77,7.2-1.06,1.53.67,3.3,1.68,5.35,2.85,7.43,4.26,18.65,10.68,29.87,7.62,7.7-2.1,14.69-8.58,20.77-19.25,6.13-10.75,4.52-22.88-4.78-36.04-15.03-21.27-41.85-34.53-48.68-34.83-5.1,8.8-21.82,57-34.46,96.9-.71,18.61-4.37,37.76-12.1,53.23-2.03,4.07-4.13,8.27-8.43,8.27Z"/>
</svg>