<?xml version="1.0" encoding="UTF-8"?>
<svg id="Layout" xmlns="http://www.w3.org/2000/svg" viewBox="0 0 350 350">
  <path d="M253.15,94.18c-.33,0-33.07-.43-63.55-.58-.99,0-1.93,0-2.89-.01-.32-.01-.64-.03-.96,0-27.51-.12-43.49.02-48.72.45-8.48.69-13.93,4.18-18.31,6.98-5.46,3.5-9.42,6.02-20.42,4.28-4.68-.74-9.05,2.44-9.79,7.11-.74,4.67,2.44,9.05,7.11,9.79,3.36.53,6.38.77,9.11.77,11.44,0,17.85-4.1,23.21-7.53,3.63-2.32,6.25-4,10.48-4.34,2.84-.23,11.53-.47,35.6-.43-7.44,19.98-22.23,60.12-26.74,75.52-2.5,8.53-10.26,38.82-5.19,70.45.67,4.21,4.31,7.2,8.44,7.2.45,0,.91-.04,1.36-.11,4.66-.75,7.84-5.14,7.09-9.8-3.58-22.32.09-47.14,4.71-62.92,4.8-16.38,22.45-63.92,28.56-80.26,29.61.17,60.36.56,60.67.57h.11c4.67,0,8.49-3.76,8.55-8.44.06-4.72-3.72-8.6-8.44-8.66Z"/>
</svg>