<?xml version="1.0" encoding="UTF-8"?>
<svg id="Layout" xmlns="http://www.w3.org/2000/svg" viewBox="0 0 350 350">
  <path d="M149.51,247.26c-5.1,0-9.57-2.03-12.91-5.87-12.39-14.23-8.38-51-1.37-101.4,1.53-11.02,2.98-21.44,3.89-30.29.32-3.15,3.13-5.46,6.29-5.12,3.15.32,5.44,3.14,5.12,6.29-.93,9.05-2.39,19.57-3.94,30.7-4.75,34.14-11.25,80.89-1.34,92.28,1.18,1.35,2.45,1.93,4.26,1.93,30.76,0,52.65-59.28,66.94-181.23.37-3.14,3.22-5.38,6.37-5.03,3.15.37,5.4,3.22,5.03,6.37-15.51,132.34-39.67,191.36-78.34,191.36Z"/>
</svg>