<?xml version="1.0" encoding="UTF-8"?>
<svg id="Layout" xmlns="http://www.w3.org/2000/svg" viewBox="0 0 350 350">
  <path d="M150.02,249.38c-.54,0-1.08-.01-1.61-.04-9.03-.42-13.51-4.74-15.67-8.28-7.18-11.74,1.34-30.48,10.37-50.31,1.68-3.69,3.34-7.34,4.83-10.83,1.86-4.34,6.89-6.36,11.23-4.49,4.34,1.86,6.35,6.89,4.49,11.23-1.54,3.6-3.25,7.37-4.99,11.17-4.33,9.52-13.26,29.16-11.42,34.11.27.1.86.26,1.96.31,16.41.72,53.08-23.33,68.28-74.07,1.35-4.53,6.11-7.09,10.65-5.74,4.52,1.36,7.09,6.12,5.74,10.65-15.65,52.24-55.54,86.28-83.86,86.29ZM147.35,232.17h.03-.03Z"/>
</svg>