<?xml version="1.0" encoding="UTF-8"?>
<svg id="Layout" xmlns="http://www.w3.org/2000/svg" viewBox="0 0 350 350">
  <path d="M158.13,248.88c-2.67,0-5.01-1.62-6.13-4.28-2.47-5.83-5.3-19.84-8.88-37.58-4.63-22.92-16.72-80.56-22.32-87.44-2-2.46-1.63-6.07.82-8.07,2.46-2,6.07-1.63,8.07.82,6.87,8.43,17.54,57.09,24.67,92.42,1.9,9.41,3.74,18.51,5.34,25.32,7.46-16.98,20.44-55.08,30.46-84.51,16.18-47.51,26.38-76.87,31.6-84.04,11.27-15.47,27.62-14.78,34.69-12.26,2.98,1.07,4.54,4.35,3.47,7.33-1.07,2.98-4.36,4.53-7.33,3.47-1.24-.42-12.77-3.87-21.55,8.21-4.58,6.29-18.09,45.97-30.02,80.99-31.11,91.34-35.26,99.34-42.65,99.61-.08,0-.16,0-.24,0Z"/>
</svg>