<?xml version="1.0" encoding="UTF-8"?>
<svg id="Layout" xmlns="http://www.w3.org/2000/svg" viewBox="0 0 350 350">
  <path d="M186.85,264.89c-1.3,0-2.6-.33-3.82-.97-5.74-3.03-8.49-12.31-14.88-38.04-2.36-9.5-6.03-24.28-8.89-30.92-3.97,4.31-10.28,13.29-14.78,19.69-15.02,21.34-23.3,32.47-32.14,31.58-3.48-.33-6.38-2.55-7.97-6.08-7.48-16.65,10.44-98.05,18.49-132.27.83-3.55,4.39-5.75,7.95-4.92,3.55.84,5.76,4.39,4.92,7.95-13.11,55.74-21.13,104.17-20.08,119.71,5.02-5.1,12.89-16.28,18.02-23.57,14.24-20.24,19.83-27.32,26.67-27.32,9.57,0,13.24,13.18,20.64,42.98,2.04,8.23,4.88,19.66,7.17,25.99,10.32-12.72,32.59-55.76,30.38-106.62-2.81-64.53,18.59-71.9,22.91-72.73,6.7-.71,8.1,8.05,2.47,12.98-5.97,5.23-14.5,5.88-12.18,59.17,2.78,64.05-30.09,118.41-42.09,122.88-.91.34-1.85.51-2.79.51ZM116.42,234.74h.03-.03Z"/>
</svg>