<?xml version="1.0" encoding="UTF-8"?>
<svg id="Layout" xmlns="http://www.w3.org/2000/svg" viewBox="0 0 350 350">
  <path d="M230.23,86.54c-2.83-2.15-6.89-1.59-9.03,1.24-1.45,1.91-27.89,36.84-48.52,66.09-9.62-19.42-18.04-30.72-26.98-41.64-2.26-2.76-6.32-3.16-9.08-.9-2.76,2.26-3.16,6.32-.9,9.08,9.33,11.39,18.07,23.27,28.5,45.65-3.07,4.49-5.85,8.67-8.2,12.35-2.19,3.44-4.5,7-6.86,10.63-24.84,38.36-39.14,62.46-28.24,73.73,1.28,1.32,3,2,4.72,2,1.61,0,3.21-.59,4.45-1.79,2.56-2.48,2.67-6.5.19-9.06-3.38-6.77,18.97-41.28,29.71-57.86,2.37-3.66,4.7-7.25,6.9-10.71,1.06-1.67,2.23-3.45,3.47-5.32,6.43,15.4,13.56,34.92,21.85,60.49,2.17,6.71,9.03,11.87,14.48,13.83,2.06.74,3.85,1.03,5.39,1.03,2.46,0,4.29-.74,5.53-1.53,3.01-1.91,3.89-5.9,1.98-8.9-1.7-2.67-5.04-3.66-7.87-2.51-2.09-.4-6.45-3.46-7.25-5.89-9.79-30.21-18.06-52.27-25.5-69.16,21.13-30.37,52.12-71.31,52.5-71.81,2.15-2.84,1.59-6.89-1.24-9.03Z"/>
</svg>