<?xml version="1.0" encoding="UTF-8"?>
<svg id="Layout" xmlns="http://www.w3.org/2000/svg" viewBox="0 0 350 350">
  <path d="M131.46,251.96c-6.61,0-12.63-.8-17.75-2.61-7.57-2.7-12.94-7.41-15.97-14.01-10.89-23.79,26.18-56.66,79.74-100.49,15.93-13.03,36.86-30.16,43.67-38.9-17.68.22-68.82,10.45-77.09,14.24-2.03,1.72-4.93,2.16-7.44.89-3.37-1.7-4.73-5.85-3.04-9.26,1.4-2.83,2.72-5.51,37.26-12.51,7.71-1.56,34.09-6.69,49.59-7.03,5.9-.13,12.48.15,15.24,5.19,6.38,11.62-9.6,25.37-49.61,58.11-31.12,25.47-83.21,68.09-75.94,83.96,1.44,3.15,4.1,5.37,8.12,6.8,27.72,9.87,100.42-21.39,126.08-34.27,3.37-1.69,7.46-.29,9.13,3.12,1.67,3.41.3,7.55-3.08,9.24-8.63,4.33-76.18,37.54-118.91,37.54ZM143.65,110.38s0,0,0,0h0ZM145.76,108s0,0,0,0t0,0ZM145.77,107.98s0,0,0,.01c0,0,0,0,0-.01Z"/>
</svg>