<?xml version="1.0" encoding="UTF-8"?>
<svg id="Layout" xmlns="http://www.w3.org/2000/svg" viewBox="0 0 350 350">
  <path d="M153.22,253.12c-12.31,0-23.59-2.81-31.77-9.99-5.58-4.91-5.79-10.41-5.42-13.25,1.63-12.37,17.9-20.97,46.5-35.1,14.04-6.94,32.67-16.14,39.45-23.02-5.4-1.34-15.29-1.95-20.63-2.28-8.27-.51-13.53-.88-17.29-2.1-3.84-1.24-11.82-3.82-13.3-11.34-1.48-7.52,4.93-12.94,8.37-15.85,3.61-3.05,9.01-2.6,12.06,1,2.55,3.01,2.66,7.26.53,10.36,2.78.36,7.06.63,10.69.85,16.34,1.01,31.78,1.96,37.02,11.4,1.31,2.36,3.01,7.25-.36,13.48-6.38,11.8-27.06,22.01-48.96,32.83-11.98,5.92-31.35,15.49-36.25,21.01,19.03,13.63,72.41-5.77,85.85-18.18,3.48-3.21,8.88-2.99,12.09.48,3.2,3.47,2.99,8.88-.48,12.09-11.57,10.68-47.91,27.6-78.11,27.61Z"/>
</svg>